<mxfile host="app.diagrams.net" modified="2020-09-23T01:36:50.538Z" agent="5.0 (Windows NT 10.0; Win64; x64) AppleWebKit/537.36 (KHTML, like Gecko) Chrome/85.0.4183.102 Safari/537.36" etag="gEgO-1BswYEyENdA7i3e" version="13.7.4" type="github" pages="3">
  <diagram id="gOpUKdiFm8pxkeaIe91-" name="Page-1">
    <mxGraphModel dx="2500" dy="839" grid="1" gridSize="10" guides="1" tooltips="1" connect="1" arrows="1" fold="1" page="1" pageScale="1" pageWidth="827" pageHeight="1169" math="0" shadow="0">
      <root>
        <mxCell id="0" />
        <mxCell id="1" parent="0" />
        <mxCell id="SPAZXxeA5xdZyipbD31G-1" value="" style="group" vertex="1" connectable="0" parent="1">
          <mxGeometry x="-670" y="20" width="1030" height="870" as="geometry" />
        </mxCell>
        <mxCell id="SPAZXxeA5xdZyipbD31G-2" value="" style="rounded=0;whiteSpace=wrap;html=1;direction=west;" vertex="1" parent="SPAZXxeA5xdZyipbD31G-1">
          <mxGeometry width="1030" height="730" as="geometry" />
        </mxCell>
        <mxCell id="SPAZXxeA5xdZyipbD31G-3" value="Mi cuenta" style="text;html=1;strokeColor=none;fillColor=none;align=center;verticalAlign=middle;whiteSpace=wrap;rounded=0;" vertex="1" parent="SPAZXxeA5xdZyipbD31G-1">
          <mxGeometry x="772.5" y="70" width="34.33333333333333" height="20" as="geometry" />
        </mxCell>
        <mxCell id="SPAZXxeA5xdZyipbD31G-4" value="Carrito" style="text;html=1;strokeColor=none;fillColor=none;align=center;verticalAlign=middle;whiteSpace=wrap;rounded=0;" vertex="1" parent="SPAZXxeA5xdZyipbD31G-1">
          <mxGeometry x="930.4333333333333" y="70" width="34.33333333333333" height="20" as="geometry" />
        </mxCell>
        <mxCell id="SPAZXxeA5xdZyipbD31G-5" value="Novedades" style="text;html=1;strokeColor=none;fillColor=none;align=center;verticalAlign=middle;whiteSpace=wrap;rounded=0;" vertex="1" parent="SPAZXxeA5xdZyipbD31G-1">
          <mxGeometry x="515" y="135" width="34.33333333333333" height="20" as="geometry" />
        </mxCell>
        <mxCell id="SPAZXxeA5xdZyipbD31G-6" value="" style="rounded=0;whiteSpace=wrap;html=1;" vertex="1" parent="SPAZXxeA5xdZyipbD31G-1">
          <mxGeometry y="730" width="1030" height="140" as="geometry" />
        </mxCell>
        <mxCell id="SPAZXxeA5xdZyipbD31G-7" value="" style="rounded=1;whiteSpace=wrap;html=1;strokeWidth=2;fillWeight=4;hachureGap=8;hachureAngle=45;fillColor=#1ba1e2;sketch=1;labelBackgroundColor=#ffffff;arcSize=0;" vertex="1" parent="SPAZXxeA5xdZyipbD31G-1">
          <mxGeometry y="170" width="1030" height="290" as="geometry" />
        </mxCell>
        <mxCell id="SPAZXxeA5xdZyipbD31G-8" value="" style="triangle;whiteSpace=wrap;html=1;rotation=-180;" vertex="1" parent="SPAZXxeA5xdZyipbD31G-1">
          <mxGeometry x="8.583333333333332" y="280" width="51.5" height="80" as="geometry" />
        </mxCell>
        <mxCell id="SPAZXxeA5xdZyipbD31G-9" value="" style="triangle;whiteSpace=wrap;html=1;" vertex="1" parent="SPAZXxeA5xdZyipbD31G-1">
          <mxGeometry x="964.7666666666667" y="290" width="51.5" height="80" as="geometry" />
        </mxCell>
        <mxCell id="SPAZXxeA5xdZyipbD31G-10" value="IMG" style="text;html=1;strokeColor=none;fillColor=none;align=center;verticalAlign=middle;whiteSpace=wrap;rounded=0;labelBackgroundColor=#ffffff;sketch=0;" vertex="1" parent="SPAZXxeA5xdZyipbD31G-1">
          <mxGeometry x="523.5833333333333" y="310" width="34.33333333333333" height="20" as="geometry" />
        </mxCell>
        <mxCell id="SPAZXxeA5xdZyipbD31G-11" value="" style="rounded=1;whiteSpace=wrap;html=1;strokeWidth=2;fillWeight=4;hachureGap=8;hachureAngle=45;sketch=1;labelBackgroundColor=#ffffff;fillColor=#FF0000;arcSize=0;" vertex="1" parent="SPAZXxeA5xdZyipbD31G-1">
          <mxGeometry x="524.32" y="493.5" width="202.68" height="207.5" as="geometry" />
        </mxCell>
        <mxCell id="SPAZXxeA5xdZyipbD31G-12" value="" style="rounded=1;whiteSpace=wrap;html=1;strokeWidth=2;fillWeight=4;hachureGap=8;hachureAngle=45;sketch=1;labelBackgroundColor=#ffffff;fillColor=#FF0000;arcSize=0;" vertex="1" parent="SPAZXxeA5xdZyipbD31G-1">
          <mxGeometry x="79.7" y="493.5" width="197.3" height="207.5" as="geometry" />
        </mxCell>
        <mxCell id="SPAZXxeA5xdZyipbD31G-13" value="" style="rounded=1;whiteSpace=wrap;html=1;strokeWidth=2;fillWeight=4;hachureGap=8;hachureAngle=45;sketch=1;labelBackgroundColor=#ffffff;arcSize=0;fontColor=#FFFF33;fillColor=#E6E6E6;" vertex="1" parent="SPAZXxeA5xdZyipbD31G-1">
          <mxGeometry width="1030" height="135" as="geometry" />
        </mxCell>
        <mxCell id="SPAZXxeA5xdZyipbD31G-14" value="Productos" style="text;html=1;strokeColor=none;fillColor=none;align=center;verticalAlign=middle;whiteSpace=wrap;rounded=0;" vertex="1" parent="SPAZXxeA5xdZyipbD31G-1">
          <mxGeometry x="266.0833333333333" y="70" width="34.33333333333333" height="20" as="geometry" />
        </mxCell>
        <mxCell id="SPAZXxeA5xdZyipbD31G-15" value="Promociones" style="text;html=1;strokeColor=none;fillColor=none;align=center;verticalAlign=middle;whiteSpace=wrap;rounded=0;" vertex="1" parent="SPAZXxeA5xdZyipbD31G-1">
          <mxGeometry x="360.5" y="70" width="34.33333333333333" height="20" as="geometry" />
        </mxCell>
        <mxCell id="SPAZXxeA5xdZyipbD31G-16" value="Envios" style="text;html=1;strokeColor=none;fillColor=none;align=center;verticalAlign=middle;whiteSpace=wrap;rounded=0;" vertex="1" parent="SPAZXxeA5xdZyipbD31G-1">
          <mxGeometry x="463.5" y="70" width="34.33333333333333" height="20" as="geometry" />
        </mxCell>
        <mxCell id="SPAZXxeA5xdZyipbD31G-17" value="Quienes somos" style="text;html=1;strokeColor=none;fillColor=none;align=center;verticalAlign=middle;whiteSpace=wrap;rounded=0;" vertex="1" parent="SPAZXxeA5xdZyipbD31G-1">
          <mxGeometry x="549.3333333333333" y="70" width="34.33333333333333" height="20" as="geometry" />
        </mxCell>
        <mxCell id="SPAZXxeA5xdZyipbD31G-18" value="" style="html=1;shadow=0;dashed=0;align=center;verticalAlign=middle;shape=mxgraph.arrows2.arrow;dy=0.6;dx=40;direction=north;notch=0;rotation=-179;" vertex="1" parent="SPAZXxeA5xdZyipbD31G-1">
          <mxGeometry x="274.66666666666663" y="90" width="17.166666666666664" height="20" as="geometry" />
        </mxCell>
        <mxCell id="SPAZXxeA5xdZyipbD31G-19" value="Registrarte" style="text;html=1;strokeColor=none;fillColor=none;align=center;verticalAlign=middle;whiteSpace=wrap;rounded=0;" vertex="1" parent="SPAZXxeA5xdZyipbD31G-1">
          <mxGeometry x="841.1666666666666" y="50" width="34.33333333333333" height="20" as="geometry" />
        </mxCell>
        <mxCell id="SPAZXxeA5xdZyipbD31G-20" value="Login" style="text;html=1;strokeColor=none;fillColor=none;align=center;verticalAlign=middle;whiteSpace=wrap;rounded=0;" vertex="1" parent="SPAZXxeA5xdZyipbD31G-1">
          <mxGeometry x="841.1666666666666" y="80" width="34.33333333333333" height="20" as="geometry" />
        </mxCell>
        <mxCell id="SPAZXxeA5xdZyipbD31G-21" value="" style="shape=image;verticalLabelPosition=bottom;labelBackgroundColor=#ffffff;verticalAlign=top;aspect=fixed;imageAspect=0;image=data:image/png,iVBORw0KGgoAAAANSUhEUgAAAOEAAADhCAMAAAAJbSJIAAAAhFBMVEX///8AAAATExNcXFzn5+fAwMBwcHBHR0fd3d3V1dX8/Pzz8/M6OjpDQ0Otra2FhYXv7+8uLi7Kysq3t7d7e3vj4+OdnZ2ysrKLi4tiYmLHx8fX19ccHBybm5uqqqokJCRRUVE0NDSKiopsbGwoKCiAgIAXFxcNDQ0eHh5WVlaTk5NgYGDDl8T0AAAJb0lEQVR4nO2daVvqPBCGBVlbFxYRQUFwQ/H//7/z8h6P5knTZibNJK1X7o9K2jxtJ8tkMjk7SyQSiUQikUgkEglP5P0rK/NR7Fq6Mxl0SLzNY9fUkcU7TeB/vMauqxt7ssBO5zZ2ZV24YgjsHPLY1XVgx1HYWcaurgMHlsJB7Oo6wFPYiV1dBy55ClvYK97yFG5j15dPzlP4Ebu+DsxYCrtZ7Po6MBpyJI5jV9eJ+9vrCp4eVIWb2JWV4FlVeB67NhLMVYWHSezqCLD4BYZoAcY9x9i1keBGVbiLXRsJwBA7bZxB2cBxTz92dSS4UBXexa6NBE+qwsfYtZFgDZ/pb+wRJ7/fEMGbcxO7NhLcqQr3sWsjAU4iF7GrI0AOA7e2uvcrgVlyG32KVsBhNW2jK8PG+Ncb4hkobKFP0c4nSOy2gLfhhjX62nbaCOdjW9gv10QYK54Zfam4UfToEomr/U3jia6QtVjcHKZ0hS01RM6K54X9ag2E45FopyGuGArn9ss1EE6P2ItdWSdYy/KPsWvrAG9F9zp2dR145gg860PZUY/OSC24XxBKTKDlnjHuhcbEmwVlUJbjU4RlgQtSEYiC4cxHcSbLjI6Bu14zCqJCkmlcutZzA98L0xsBPsUHRsGQCsG1yzND3afIWGULqHDyphbkegVxlY1ROqDCmp7dc7U0w6cYUCFY0ju93BdHtfgLvVxAhTVXWFxb4nAKnQ3pX3kIj6IHDIdTiKMSh5CDD7U8vSkOpxBWq10WydC5T35E4RS+qMUYPppvHJ37wRSiGa6pxVTgCmRnZDCFHiJ/VuoVyIYYTKGH6C107lNLBVMIZugW+IOzL2qcYiiFI6faaYArg2qIoRQu1UJvjnE/8KUPiYVCzYAhmnlHLKQDj6mz7pOAJm5KKbHeq0W2tNv0py4fmE57fIrOwcytce67CkRDbDDuu3v69os3AvdoirYYYo2ImH3supM4uAvEKVhjqROZ1g5DvKqhMLNfvgEwYjCKtKFHpA1+yzjabxCdegGivF2ncagXbY/OkOHADoz53wgFBgPwW64IBTB1Qs34ULZzHxon2uwJgpIpzQbYDiNOyAgs0XUJBULMgOEd1s3Ccg8fxL29QACFfje95ODKIAxxAyjEcUjtQHQwRELUUQCFEChS1ww1n+Kj3fEaQCF8VvV38nINUV4hmuGMcodq4Hr2JATyCr1v5IUu3G6I8gohcNJHVgT0KVqrLK+wq/7cx4Z6pnNfXKEXdz7CywYirhC+qXcv++lfoc62X4srhEU/P1mCsO2y1VlaYQbufD+7stAQbcvJ0goFzFCrgW0tUlohpvOiCbDCMkRphWCGnOj8KjAJgWWKKqwQvX91/IgqLEMUnuOjGXrb4Ao+xcdhJfBCDtW//QI2j19W/xZa0jrufATCHBuEv4wPa/vNouAxAWlsKSXUcucjzKyZgbj0mCtgY79dBHwmXhnbbxcBn8lzmrnK5tEMtbFSQ6ANJ6gw09cGwSUsuJyR/YbB8ZvDKn+x3zE0nvPKNM8Q/ZqhloTgYTwqBTqWffnvfujBwL6/KP8l7OTynZgTnfsVkzjB+FLv7nyE+vwEZ8CYzMJ7eieqL11QIawvfHIFWEHnfrkjVlAh1MB/omqqEcgpxD5ZIOs/pOUpN0Q5hdy1WjZEn6KcQu56Oxuic19MITtmgg0xxkNMITvuhQ+4NUuTEIgpBD8DJ0MAHVqQh5hCyJPHTS9Ag+bcl1KIMYQyBxlNwDddZohSCtFV5NWB8QMYYpmjS0ohxCP6c+dX3KSs8lIKSY+3LhgwXPKhCClEb59Y7l+4S8nanZBCjEcUS6RO+VKEZsCw/EXd7ckHfIqP4/txkXv4lPfG32iMwIsxN5YYwbqh3OGMOHCKh1N6ARqxpX0h1BueeLbfPQByZtgU577kuSLNSGzq3Y+okE/t95dHNE18EwzxUlKg5lOMg+w5vhN7BcQR7CtOxN+iLzO9V9hHFvgifo5YFncl8SPEQWnj4+o8Dqsnya4wkUgkopGNt4OL016rx89N31dLnvU3q1MAz2E/uJ1FPY4pm2lHDOy29b1g+fIDL/rcjyZyacqacV1PY37sFq853UbROC7LClJn7F92OsqLoPOpjIr4/b3ra8x35RcNfRJj9llel07nzW3D1aLSg7ALemJoz5a3xmVhwbbn4SHgEXC5/fgLfvAnIVGM8NxXgbI5gRvRQ8mctg91xjRpnv/IM5uMlK9JIorGAPHguR3rosR5dZDT3snOKM7mQHLatBCtDf0sKLrVZOSTe3Ziur4pOvafl4vepDd7fdP/QQ+QLA5lbtanc2Tmxccp78fQm5nVdxOeFdZtqKPJQjNz911yomuUb2y0G0IEXe8B/0nt97WuEIdEuolKd4raeWWahgnaEzXxCH4XB6010fTLOvX1dqbQeGMcLzUJNU6YCoNatFIf+VqqgJdkOIDoWF1ZIzicMSSFQzOtK6EabEkNdoaRPbTWFL98w3uvdXIVE7hX19ThwQojbVIHbbDxI4QYc9nD0OFxG1OnwC9oTTvYtrEhgaZI9pRpGJMaA3fgLe9IF4UQdeO0C6zb/04LFQhFNj5uGLbSdltDMJnRyqA19buzUgdMxjjQh/6CFvkC3hlj82u/rTfgYRpXY8EXQeu7YOZkjG+GnNSyXT7U33gCEZgMLQEu1N/Y/IKP2FfKFjP2TQ/gL6NFL0Hz9W4wXeGNh0AO0eyG542DSFrXZS2DvllhZw20e4aXiE4q2oxcy2dQ+D++wvrpPKvBOWAhIRyeQUvdjIyubr0By/CpcY4MdUGb4g9Ropb+m9qua74tHEnowR/ik/w93u9F6b8yPeqNOkbWnVvnynNbaPP/qfgyVOHI7tX47z17hfzt9JR/BQ/s3V8LzkYFR430BPjMFBT1/nzzOhgW/szYQWeIW70YvN4MipkcjPMZz5BdmxyfETlcTnZi8cW5vR7/w3EZURPgSHcVf8kN69AGeBNV4hEFgRbYSNsuuOHmpCD5YGvdhfa0CD91KsEUA7Sj/7A+cJctEZUL5yfkNgMZsLxFt7CC6+qLBmlGf7gvrMMouH5NlXHywUNLJ6WdRte9PbgvXWUbhlvD/wHPLfzHoZ4b5fbBdNGprI+0nH7hPV5s6o6q8m0hDmIXS9+J3laZTwyPYy8D/9FGmTCubgOG0ZSQz+bLq3nfr6H01vPlcj4LFV6SSCQSiUQikUgkEj/8AWJ4m338uIc8AAAAAElFTkSuQmCC;" vertex="1" parent="SPAZXxeA5xdZyipbD31G-1">
          <mxGeometry x="921.4208333333332" y="43.5" width="57.079166666666666" height="57.079166666666666" as="geometry" />
        </mxCell>
        <mxCell id="SPAZXxeA5xdZyipbD31G-22" value="" style="shape=image;verticalLabelPosition=bottom;labelBackgroundColor=#ffffff;verticalAlign=top;aspect=fixed;imageAspect=0;image=data:image/png,iVBORw0KGgoAAAANSUhEUgAAAPEAAADRCAMAAAAquaQNAAAAY1BMVEV0dHT8/Pz+/v7////t7e3s7Oz19fXz8/P5+fn09PTw8PBsbGxwcHBubm5qamp5eXnc3Nzk5OSNjY3Hx8eUlJSBgYGmpqaHh4fV1dWdnZ28vLzGxsa2traZmZmqqqrf399hYWHwxnLYAAAQoUlEQVR4nO1d6dakKhJUcEW09n2b93/KAdwQQSXBr2rOdP64J/qe7tIQyAySJQOMEMJJxE2FOUdEwFQLCYepFuYqFD+bqDDmMOMQKTBWIA4FDBWYqZD/owHkPxvjDkaB+N9J3DPuYR4vYawlH6cdt7hnHPc0ZShzQ0MYTsCQw0yFyAgbaisxjv4x/hZjPGaMuSUxNwFzjiIBUwUSFRIFpiqMOMx7mAgYKzBTINLCUMBQgZkKkRb2LKMgEZZxc4GZAj397AowUL/97Fee/eD6r6z94PK31/Yw926Vq90q6MfXOCjMDSr9SJodVL2/iLWuI3JxHUTrOiSW/9eMx45TgRaMTXJAohnNMZYiRQ9JPGAcjyTAMsZRIhpDwEyB4QSsaU5ANIBsHJOUmRhOGSGkhw1N1Ms8GdZtjBRYNyzq27iHeQ8FNSyxHEWnRPEdIzei+o6RG4m0boQx3V2v2/v9dnsdNydhx9vxeH4erjv+tzltaHSa8JAjZ7m6yiQkY0+93l+XoGBWlpRZUBuHtCyLqqKn1/txjQl/37UVyDqMG5im0fZx3gdVUbYsTcaoF/R0e2xZ00X/m4yZ7Z7HzTzXAe+iovvnNUpJtJquVsexF5UZkSw7nIPKim3HuiyC432LLMaxhcqMg5x7z1p/pQrMgDBE8X1PCwhbifXluWPqsNaI/GfzHiYqzOegRK1VmTx2NN+TQaSFoQpDBWa8dUl22Nt1ZYOVxem94+3cdisxZBSYqrAJDzpYh2a/movxPbwqp9Ydkq72B9YUP6syuas6+aMrjBbBk2RkHcZLVWYPB5kmxvdMS690ayur44H57l5lxhJMR3CWMeGWoJCZgFm4BGYqRHh3rPw2b2+0uDzqd0Qpf1iqhbmARIGJAkP76KRXmdf9anyFFadDRCxVpiE6eVAgeM327TlvHin5icxeiuM/4Cs4nw5p+H3GJH57ds9TnPcxn2l8M5dJ0vsq/tlktHhmriqTyy9S6y8+XSeZDcSfS/GHfLmVwaHWnmHeac9QkJBgYoaZRTzGoQJJ9ocduremaxvicRT38TjWhWYHzZVeN3/ZoXujwYOr7b9WmSS6VV/hy606sonp+ipz0KvJ9vSdBq6NBtcFvVpLvlGZcyJyANkf0P2vPZZq1Tvh2jIXb16rzB4mKpRYglRmFB+/TZg57Uv0ZyqTbDdfcNEjo+UV4z/J7KWH7zdwbdUTj+TXCiozeX7PR6tWHOttHuuqzNuvtDC38vIhtuNY66uNaYCUXHwEJdqYh1/a7PDAVxMFjn318njMZcfn5PaWfM2FfbL9fn97v9l/Wcd0zXsWW2yT9bFTmeQTOLwdY7t5PQ+fKKw3fog+x5ekzhen5DajvJbKxB8HugV9PXZ8Vsc/XWf8V7mbuL43cNLVI3NVmRhpIMYxmG8R3K6ZmMvrjf04+sBJV890Zu4Ux32vXrz0EkIJ0+L0YMLfxLZrbZwdLkDO1T2bXnqRV2GWRicC7dLF/hDO0e1a+nqBBfvq4V1lki2Mb3k6zDavZIwzbE5WXbFflZnAWpjSZ4YX0605h09QnC62yKvKJKA4XJ52Fu3bGMI7kMqpPmQZ42Xj+AL67O/QsoGbZs7OICW7NQvOgcrkvKd3N5H8Bfno9GDfwG0zPwBfmJ54OO13NyGVWrO7aUqBNDB9Az453WxBDdw08xXyyD3GXjRX+gBEDLqJHQgzyh9A1qF4e2FMtoAu7UqYUd7ZPzWoDksY89E8udt4A3i0M2HesQFfutoJdzvYMYhwv9uYYbGjPG8EmgIFCo8QJ7JzJgwcyyfSk0i0cC46pU/AY4urB8KMMuDZ9DYTneYUCLkCvFbx9EKYBSlA/6ru2ElzQQYx3RtnhbaUif3TgyrGGKyro/QM8dORJ8KwoUwvM4ynxjGB+I7i7qdP15RvgKj8nN5f3UQqEZ3qeCxCUh2PIX36EnprYtavI/s3YI4zaaJTR02CUwoEvwF92pOfbg0/Ae9wGiUwl2kukJ9m0cEn4RAl9u/ABxaM8QnwsHLnsU9zAzVyyWf11iqTQB5Fj36bmDVyDnEmN0lldtSacdwc6RtZFoGSAH5HMTdQI1dXE6/EHJ3OEMYX33xZI8eQhMiJRJYqE8eQNGrpMxa3hveAb1/ciaXmgkha7jE8+y3BGLZCH0d2unoLaWK6X6GJQ5SCPv6TTLZx1DOuISh5WT7WYBzC+luxE3zqTQQSyyDWRSd8AC2GlPEKnZoxvkNSqeUz1UcnrQLBFwjh4LJKEzNvDVqYobvlmgs2igN6XolxCFF/vJGXM36BFjXLwzqMQXNGbvFilbmDLWkW6wxj6EDm7lqrMkWqL+fWwgwkt4Jgk63EGG1hO6o2IU/LytSYBU0QFlKsSW4BmzhYJRoLxilsS1V17VVmy1KnQECTpmA9x8UYZ6AXCugLL1GZsHlxwIfNWoxDYLTkec0FjAl0o2mxlqtmjIGepXwaGCPWsPzsoYA5SNNxxr7THxLjN/CdNuKEMIkklmOVmUF3khWf9Rg/gLtBi0c2qzLDB3Rv7ZptDAvI3Hdls5oLQebf9a+vFY6By4zCSjLHOALlPlZnDJQgwp2qjJVxTKD950cZ85CsVZndPkxQUqm28hcZB5R0W0xrlkGX6okjocTgG53L5BcZFwd+QxI2KhBgFk0Y/UnG9JxOai7oTPR3GQcboq4fy4wxhmzsaRn/5DgOiq3Sq8UvJuKsCJukfBzOMq2U1xOM4RGEaeuEU+tYDqMTdKIobE2V6cBYxCejykyhswjB+AdVpqCMsVlzEYdh/IuzRWHVzsyYODiIlZbZGsZOfe+AjSrTQWIyo+/VGCNgWqZ9r8E4Fr/Y+GrwxLv+Ze/7AzrCmdNhyVM68NXuS6j9L6/ludDO6TxsuYtMKhOYMmyNrrF6zM1F+wZ8q0ZkUpmR21nq1QKy22hjLpVoVSabO4EzDe0vrzSQETB52xh9E7lXSzNH5OSq/e9e6wjnTq/FXGomz48lv00cJk7CTuswdplHCNuYVGa6d/vhtRYXQTu6ZKOZXnPh1EVjCsb+968Jxm7DmCc0iZ7xzvUmg3XW2hBxfa/mSONYZUIONg1t43NvdWsYvGbQWnEg0jiWVmRc0gG1VWtEZJdMVG2l2H3crjv1sZm4aTnx0yssqCKH9GpjbC6h1VwEupwl2cl/t3aUmILxbT3GhcuBVANjt+mNYPzCY5UJ3UKu/rZ3b41iD3fhnOR9IP0umMzZQ3DzncJ1lh/cLqG010faz+WDceF7M6pT+qO1C9GqTC+Mqee9mc6aun4rg8r00qs9+y7ghknFqjUZ+50yOuZ7WisMuUz3MMDN64knp0R1b5XkraTMXuqlA3ltZC+hiVklolOmKpDUz/f0uRoDOjmpsaqJxysx9tfI7vPExlZmzM9k+GHsaRSzNxqozO60lzfGvhYnfI1ioTKxUm+RW+glOnHzdVeEtxe6SKcYZZXplgeXzcukEXQFit5MKtMxXS2Zj7sEUOaaaOyMvlK95vLHOKDuEQpD7qkwvM3ZwNhxEWbwjCP0bq6OsMcblOlzxLjehOyRsfOs0eFyzrGVjyZ7W6vM3m8TnzfLu92DgkLQUVGDlXfpXLm8mgrePa8zunfx177kZW0sWhrWj705R/EYh0yue1J+YOXHxNjPdLE1eG4A7/xWbqA7vcqMvcnYxjbArakoc7wle/QiZKAyeX6vKcrtI20oGT3Crq3yGInb95BYyiozOnguAwIbyl6jJLfy2d+zN7yjPPKSN5QNMqVAiVcHGohNe4ZdipHPqN+YfVT23afFxkxDLjMmrtsiRmZ/Xwbw0oDJl8iG9Rb5H5rLYb3lBHqz3pDrO2AE/EKHwb23g3t9fPuMwHrbAAJdoDRp9EaMd5TDLvOZNkvn5VltcSvbK350Z2Gw76dZr6961n3ciu0UY2+Zpd7slt4glxnOGCVTt0d62CagmtVGPuR1xiqMvtJxvcWu6ELy8e+67BgDb4WYsPKOlKreUjxm0HunsovIKzCuYoza+zIRGlXC8bTaJpndhifoPRgTtuG3VhtP/0TgiyKMZnnSzeE0sN5YrDCeMRe92vNcnF8Nb0M4xL7LGoqMz1S9xcTvN67OllNkhPaev3nWUjPVW/TZrWnxtM4JoMwrZS4x4+lKOKDbKfUPK/YfQJ4ehT4r7ooj5tO33GSeZoyM7xWDUnvIZ1XlQlwnOM3Yx+oTLYPzDsaXGw4PnjjTc18RyHRHeeLurctif0ic1p0QRuB6XgMrtgvqLbrOJorgGdsUsTJxxttb4NzQm3RJvUXYRYq18Zpsbs3bG8bk4djQ5ZMsqeqNwXs/aXW5Zp74cmMNvXMpSxiUn2jJ7ZHQlfPaO3vebIxweL1R6M1N+3SScVdrAHbal/FFqxz+wTh+bkAjmp+BGfdqPnEk9cyR34BD+N0+kCIOJ2D0XUY6OZwAnXuTyfUWibkSTvSxbeTidICVZFvOGV/3tiVl+QUCC+stpnbTiTK4+/RXBmNe7GXJOcRLb+y2qiRBxfHetflyQ3h3s+jb5bPbcDt/R3m+OBVCq1v8N3ytOVNxxd7CSjiLD/QV++3f8bXjXL4FH5PKFG9dq0wBlyUGys1hlYA0w3m7X9IeNOupIQkaqnpHC1agaPn+A4elMTbNmC8nW9wt68LM32lUHAFFUX1xzp5zbnsTWjKeq7JIg8N6imPe2HDeT/bCanCZj+6OcoS6O8qRKOWdTgqv4pZ+kS83Jv8nqgbz0mVdvUU+YFuWTGXmeZq3UozhtpR3nkycUaDB9WsdujNGw5wDLLYhL/Cd532t73y+qrdxJbfYR19u4Npw+DY4bXrktSTsq3obNoPyM+rfJlsbwld9z65LSYhNEFbVB7ULjbzK748QDvl+Rl0J3eLep2ytGGeafUbl3r0GrE/DybgEOL2E0UQbm8cxzsdrq+XLthL72oayl9oViygUfAzjmNM2VfXGqrwuzj/UoxtD+DZs5fKZiqreuN+4hSWW01W98bCe9y8SHi3O0QuJ4DWuh0Xq2WzkBwmLxTnpLenHhfFg4Y3fMfFtcnrDksMp7qljVe+uthU9rXeTr6vhLe2ahURKVe+OWnMWpqmu2Ja+HsGw8wvrXeTrbm05bHrKZ/jMVvWOCaq38Hu/9sKrtaeFyq2U+ABV9Y4igiPeyO6H1Na1+haNor410aWqN2eMeWaz9HWKei3j12gU51ylCWKM8L1ar5KRL0Ofks2YxjTtVGYHz/8RTSx+rXmADqJvQnxkkXYweA0qU/LbfUhSAxXhp0hQrVaFDK1hWH9PDWyfqYX9dVESbLtVB2u/qUJihlkfkiaj07QCGcBQhWHfg/RQ38X60RNrB1LLuB5THEYdJApMdXBGgfws4+gfY1+MZ1SmBEMVhgocOQzVd4zciKQM9PpHhUSBqQrnx/GEHvsuzBzg1BNmVab7B897KPWlZd1q1MP03WpZD1usMh0GVaQdVLECbVzHrBfRuw6J5T/GJsZaKPyiBFMV2jNWoAVjrKdprLfIrYf1DCTvYWqGqYBEgbkKxRMSLczMMNRCcR11FM5BpMCpqt5ObuTXo1Pf235NgfxTmf8YQxlbjONfVJmjIb1UZabDooT5HExUmM/B1AyzP4JtvcX6K4vOpMA2zyW+sg6SWMRjASMRhBUY1V2sg01fUmCmQKSFzUBSYKZCpIW4g9F/AXWsstamO868AAAAAElFTkSuQmCC;" vertex="1" parent="SPAZXxeA5xdZyipbD31G-1">
          <mxGeometry x="755.3333333333333" y="43.5" width="58.39241666666666" height="50.641666666666666" as="geometry" />
        </mxCell>
        <mxCell id="SPAZXxeA5xdZyipbD31G-23" value="" style="shape=image;verticalLabelPosition=bottom;labelBackgroundColor=#ffffff;verticalAlign=top;aspect=fixed;imageAspect=0;image=data:image/png,iVBORw0KGgoAAAANSUhEUgAAASAAAACvCAMAAABqzPMLAAAA8FBMVEX+/v7t7e3////90xzs7Oz4+PhSFw/39/fz8/Pw8PD09PT7+/tSFw5CAABEAABJAABLAAA+AABQFA//1xxQEghODgD/2iRNCABHAApOEA5MDA1MBQBEAAf/1yj/1Cv/+vmnkIu0npvp3dvz6ef/1Cr4yy3uwC3CrqtjNjCGZWF3VE/MubfXycZoQDu9jiZdMCrOoCmsfiLarCvFlyecgn6gcR+Qc2/Fs7Hg09LUx8VxTEeTZBt0QhJ0UEy2iCNlMAqCURdVIBnluDVdJglWGwaJWReaah1YJyGZfHqLbWhrNw/JnBg1AAB6Shns49+EVBhnkIagAAAchElEQVR4nO1dC1vaTNNOUiHnhEMCKGqEVBGB2gNVtPZgT2rfpz7//9+8OzMbSNjlpEFpr2e/6/rezmOLw52dwz0zu1E0hS1NV2FtKSgUtlCw4UeaLREK+I8UFFSdPoEEiwQ1LZgoGCQYKJgkWPT30sLWhumjKqSDvjVRSEkUQsGWCAVlotBWWqGttEJbRlohUyIYW2mFttIAbYo+6wRI3TCAHqTPfwA9I0B/iYlpuPQtXCQVSLBRsCVCAQWFBJ0+gQSLBBUFgwQTBVMiGCioJFj0CRumj6ro/625S1H/ziefmz6K+nc617z0USQALeHM1A1zruvTRwbQfzvoP4BWAWgtTlFLO0VFdIpK2ilqWSetmqZh2BujzzgPIqT5BxG4/INEIfH2HGn+xejJ0xdDYfzFUgI9bDMtjL8Y/0n7onVwMGydjwwj+WLPp8+GZdKG0TsLXc/3S77vude3I/jefy1ZXVUhZluta7cUFPlyglJ5cMEQ+lsBWtG56sbFsTdGh6+w/PFe+1vJ6ooKRQduyLeOEwSBg39winW3xzfAMwGU8fbPRRHg9565Dm0a3w1uTm9C1ye8gvIBSwSfVh9y0igkZNXC9VSC8KNCdOchHHX3sjWKIy2K+62BRxC5Q/up9ZkIm0FWVWPooVt2T0bMcOxCoWDbSnQx8JiRFR2388T6pHbiZnAx49wtOmBd5wqAkyw7ajG37TCERtq8Yvtfz8XM+2vAIbxuawwWPQWRdgGBzQmPI7ZPWIptmpYMoKflYk9fKjWGPsMncNpKYXppfZcBVPRaLMPun3c6vVFMJvaMAD35DlLvQ7aBHPdCmdo/iFDHhVB2c3vadD223GBw0NaecAflFA4fQQ4Vs+UzDEpnmrB/EKFuHRAaZ9gBywMGPd1cmz5TZJUWdTJ52lgggYMrEZInj0tXUpvvIZ1MMzqGL+/HthQgu112ik4mv3ZCd4A0bS36LOysLpHaa8JWXJr7bAmmYWGIL9ZPYtEF0RZqFh2HUuwEKQZRCwBahz6bRjWM8zJ962Z4ITUyu+cBNqHvlctl1ysFCJPjdie9+bz0yeygDQHIbIdj71IeRrbopguR5xRLLMO+aMfxqDe85pzN/xgpfwdZNQ3DMGXagULGJfjgYgUNxxu0JZtI6XrubZsZFCxFUy4GLiRHjtfVDEiODO5M10RWOUDcwSvog7iDB8GWCGjzk5ScFOLRkBTi0RADRrvXOej02vgtxtFQAYEpZB2gAwq+Nbhr6WiCr1Y6Z/fp/6poHSSyDKHu5enpoDs8v9eoorhIH8QkUUEQkmjIAUKB+0XOzDKCvkAoLCEocWtQ9jzf88rHB+CEreQX6fjXCn10QI33hx92aROV70RfbU+DprVv6uCJ6vUwCMJ6iX16617RV1HOWiQ8BVk146FHRQv2bQLfHcbmFDmMrqHws3O1X629C3bwb/o3I3lCNF4I/E0IH+ok8Z8lR2fxIn3Sqc8GdFY1ZXTsZ9IX/7RPmdc4PHfhL1TCo+qLF9WjqwZ9V/cgkqdEqaW0/enqY8mHyP8HcTGt3awn1WX+oEPgVBOFtE4Z8Nl9x/BhCO2/8bivPrmXp0RpKwMKEoTNUqkZ8o8P3JNY+3O4mBbX0bqCkudf+x5/4B77DolCZhtoVrHxYe8Frdrb7w0wx2LT6Ym+empFl54XXHaHw7uP41J/6ab9x+wgTRvg/imFw34cx/1hUMJcuFS8SPpZ8XHIwNj+fFjlAL2oHv7LfLUDm+F2kZnZo+FFTN/BGA2LPiSPTt1p2zkDlITD3J00EQivG2sse2GBKL4jThW4QwrC1hk6IP/rGB+29l7525QGDhb5aptKj/hHLT7w8XmEN7G6wEkvJM9ZJ03r0WSVCxYJpmr1MH57t8rkS3S8OhqQx747e7o9NLDdT7UX6VX7+rmBjIv5K2Whr56gpbUHgLdTOtFk+giCwTcfWQYJ1kwhd7JqtrFx0/wYpb4E+w68Mu93NC1ugt/Y+bL3Iruq+z/dCgAZuN0Z9FUOUXSHFWyWaor6CK5j65nJqnHSBP9cz5Yw7GhYDije3EVIMSrfD18Iq/a6vkM+97q/wMyyn45JA/ul2sZzMU4gyr3UDsA8VuuFJfruTUj0iu7bqggQpES7KfoqsNeZCA3gQ/2DzQeo78Jm927p+evIMulLKPGJy2s7DlCMmgQf8NVvXPLV3iBefhPZI/i9QT3SnpisqquRVS1CHhAOyAHZStzv9doKVZxtrZW0mBnFmHZAEzPDlAj8Vfl8eYS0WzAy71zTHkhW1a1ZZNUAYmYsEgok6PMF7Q6TEreNu0YZdV2XkdWbFi/2aKNTyrArpSOZgXEzO/wxpq/m0luo7bFUot5VppSzDEGwFgk6CWsgq0YL43e5g09eaZWbOIgQjIs9SjRAV+2+no0PQ2jvVUhV1n9GS4Z7vaBAhd/xWC60uWTVHCGr8O8QDe0A8iHyOqHXwcxG6ftY4/g5wwGNzew1cl23tbyNKR2IDu6FucFUIx7Agw9vkCooF2XOV/H/uVDsseNrKAhuf96fj8+L2nuI9s3uKqG+DSHA76wVoEftINW4pceOZkFYFAPP8+pU8Ljpa0q3xAxnimLI1uF3cELujHaQfOEvLB0YGwuQce6lzCI6KUFKXO/EoxOPF3taLcwBdl8tMLAX1deQDPnDFTYQ+43QYyud5QhQvmTVbmPtp3SC0ZFFdAxnPfgRHyBzfMwUGz9mRvgxQB/Awsr3q2ygggYGjgDlTVZNtjglLaQFWyIU0kJCVtkfTTMiilGMbaiLjjAn9G919vcMFt39sT/a/iahGFNr7xfLFcPLlTYQAuSUbjUlo5yJy0oLCVkliQRLTQk6FySVwIeRVZASioFjCDbli/VBrCI51KIzYGLorj0pxZC4oNLBCny1kJjYUNtMsmr0cMt45DZYvggOyB+Z5NjY6vkBdpF33yxyQGwdwT/3zlcCyI7hAUBxegFAz9JZxTkoRg4ukWJoHXJAHT3x/AyhEe6wnd8vBYcjuqCvkG96Fyu5IBut2uvJAHp+smp1wf8GPlIMmwrOLF9MdjFw7BOqcQgU4+i94LOrX73VAVIOwM+V2w/cQfPIKgGkpX0Q56eikJDVLEAWxe8yGUV0HGIFNOJnI7CZ2iITFCjG/q9PwhZ6GED4BLxoGqCtNECJPoKAAG1NAUQfrBu4JEJBIuiiYBs6j1k0B6XdUj40UhgFhGUxVj8qF6U1jtr78pFoYkdhBdzJSj5IuYTHUj/RbImmY0o6X8iikF8epJxCjyI8Rgek9JBieAfWhA+qcRGLrL+mKUb1dfm3JCt6+Y0B1LxbKcwr+Fwc98BYI1l9mK1qZz4WyTjFqMMUT/PESLkvHV1UpT7tgNhW4a3DqX31ZQcKqNFCVCZLL1DZ1SmPNo1qGLRlEorxseng2Ko50QGrIE5x9920ge1f7cgq0y+qn6Bk5vZWsDEdyq51MrL1AfSQfMGkVnmpSxSD8kW3Z0x0UEYe1jg+iA6oMaPyegSTZeFgtVTaJk3KfW2jdpCBzy24ianeQyXpoZ4KgBTV0m3UxAG5s4j93tU2wrwi2Wh5kL9f5gVQLk6a5jAdt48UI74Bd83yxbSHHEraqOiAgorYG+M/e7cLqXi4Ur0DEwzINkY5kVXsONg6cTYSChKhQJJE0G0bxuFhyxxQkZX8pNfW8cORD+rn0jYqC1VXO5XGLGL2EugqIL1aLoQVl2ZXJ+VAhYSsjvUBsioKFmeuaUgWkdVMoignqwqMQYFKnGJQNuh2jEliBo1WaRuVOSBGPGZVPqpvsT3mf1ylw8q20GmAD8ic4VvnJ4proBoaUQwyBRtK0g6jGFbKl5lJG1V0QEVnd3btvvYTAplTOh0tnIZJb6EW0Fy/ZWzKGDDFb2qj2pxinMapaMhHxYU2avWQJcvbs5tjmAJgHdK7vddolIFZwiKA7BiaAuHA2oxDvYUY4qrj33KKQT2xvjl5YkaPIrwQzPd+s6+/O7c0dPiNTy763fN2pChwEnHGZpr8Z+0OynbeyMyzsyrxQfPJagKQgvFpQjHQAbWsyRMzqAqyfTVd46i92ZX5pWR3/a+K/0MDwsxXe75zenzd9P6RRzXlYgIVzOYzGzPzIKs8ihEzywgUqwoSQU8LyLCcMrVRo9MQ88UIKSB9XNQtObI2avUt0nV5DlQ9+kx/v3r4hQYZwM0F4Ou9jibJjOz2SWJ7jHDANq6fFLimnLlaEsEShSwKj8+DLiCAl6iIaPeBcARONM472MamRqs7Tbeqh99ZEN8RMmuOz/fEIKt7n7xGpThZwaA1jAWAopvbCWxw/oXBGW1EZxVKVA72HnSoV7EcmuW+E19m9l05xdgDLlrxxToH4vOtOaFntcP3pcbOBKPAL3emPbV2Vk5Vr3mDdbQRnVVwiMEpKafclopOcKxOFDLjU6IY0zWO2iewnIa0OM0cz+6b9IarHb77XW/Q2sYgOcXxlU7ZS4FG5Uy/tRFc7JIl9nXeHgaAGFrxZAcZdzMoxluv4jjb32Tt5+rhZ4HfV2uHb9+9ef/+zavfgJCX3ULQcc7UHhUnwFpS+srT59pBUMNLyloKHq4EL8oVMrByL7ZR2R6B71mW5oiHVzsNsQT7ooqr9hayruDaSIcyFhscLz0DQk7odCPIKgychAN6oPaojDQMzwQwp2iOcFJTbKPu/YDgvfOvzMD2vzTmDTbssdzRSQoriQNiqTP1CpIdhE/KjzP89HnIqj4swYllHlZgShDyxJN7HchhdFmHCC+0UauvwAFVmrIBKoZdZQ77YMbp4kM4G1NYrQMT2GE6stkstjrM6jJqJ2Ge+KlEsNJfPC+yamLASHyC3ceY7pSK55ZqUeGsIrRRq1+bFTQ8GT7vd+fQV1i1Dw0HD3RwCqvAWFkxuEl7Jfu+jF7afn6yqt5DUhZcR8neTgZ9b2PKiiRt1EMsY0hzaAxuM5LH8T9H/+WUrs8jhZ+Mmlh5YmMeZmf2asFHXQNAWwr4Q/AJNg+4Ph8FGvSRYoht1L0PjeKMFKjG6P3C0TMosuFD8D72IqWP+IwDaWJ2YOv1kxUBWgtZtUdoVd4d9wnjefoQLyYR26hQKITqvWRAqPrVr0iqIuJfC3fw5HPduz7FW6ucJJef+G1IOI6jvDurGR+0HFnVNTyU4vin/PTJeJ6e5jim/S01BFkEEw2MEQxmPNIeEP347fhPvxo01Bckx+r87BiIcsAIoHNt5kZWJf67IEYxMaQZpm4bOOaSOn2i9YIS11s0FyrxSLfJ/q+dOcPTtXcTbw8HOrZT/AxSiyxAHYzz90oqVmWiWMJPxShmpFHIpbNqjkJEKBVY4hOc/S1uC21UKLIyvib253lyVPHkw9MMkn/SFe3a2190tIwvL9s/sy+IjanPT1Yt9g9G1yU8z1Zy6PIE3dbwPg4pxcCNJemEzWNnLPW+KmejXvXlq++0iRAlt589N4OeEet2z83FLKSkXSy7JpcnYHNK5oipxgHHnEUIXsOJ1Rk5NKP3jWA66lX3sXGGHf+il502t9uQYnjn6wBo1c4q/lnvlOkEBs7TM8qBNY4fQo3jX3RA4axhjlnHf97ubIvZdZUGzf1LamJkAYpBA69lbMYOYp+g3VN0d+puR6PCojipWUOKIXVA6KBnHP+psc01Ofo7Xkc4R13qgj92mlM1tOgfTKUfD1AOThoXc2dDl6J7+QxrHOKkJs1ESScU97DBU5GWP1j4qmx/FuYbXkLJn9lX1PIdJwinKkQRjtwfGM9OVnnzkglG4bzYRISaTTkO+5+3pdweMHClkOLPXrkVyU+w5A+te3sIOWFxqsYYQUXIP9AeGebnktVlE0X8RyAY7RNvHHglbVTcJTu/xAyIs1epgSE+YmyDihtAemsYVKWbBghSSL+1eqK41hOHZtTit2cyRyzUOF5DYNkWJzhZbEMHJCZNhA9EPWEsFhgrDWEbWJGaHjiPbmhg+uHBZx0AMWFEZ8Ekh8GgjVqslCRWlLBXCYkH/+NUhAhPSaUT1EemasDgZngyBZCCE+W3G0BWp86sav0ZmSC2USuyAIbsVTb6QfGL/UT4Rzwcuh320C0o+tanD00lI/ePBuixBbNpgHC0QjKpST5VBkLCXr8IZsQcDWP3kpYRsH4IUmdgFAZA0Zy+ZBAnTvAA9CMLZvlFMRT4hTdCMRULGSywSYhowl4lyePXUJ5cUzgMTyOISIXToDhd7UicNI9ikpKrrP6aKbkmw0L55UGYNcxso0IVcFecpx+Ha4ntMX6xDVYpuKYa+izH65OmcoAcfrJumTzo6c6stvmkphDh4Svt/pTgM5u9Mn4KZTHRKslnOYxHoD4aZTzTYb5MieIjfWu+Jw4nk5qyryQhC2ztf5vFXnlr6IuAz1EJKcaJoU4AEo5NEUBr4WIPPdTL/o/Oqwo2UT2qV4q7UnwoeRSnyxPTqwRCWrl3tYNtgrapzt5BjKyCJp2N2kEaDZOLNgFumOEjoRHU5GIOSDSw1/KpNKy44TlPQ50HENaDvN7jyx05OmkcNZMUm9leqEj9c3KwWeaAjmaQD+6zvKE11kcKEFUU++ZSFcVlyCoMC40jOwqFBYJNQhLmDf2ySTUOyZyCK4vv3MCcnd+CA6oeYiCXHHwhSOuXylgfHtCzACk4ZOa1eU0aNZ09QDUO8+kBKhLyI6tmR07IYVbDfyXFp/q2LC0bEflwZJd74FRRMfDjiT6GbAdhc94J7x/f1VAEgB5INQwccBdp996H3fCtvBOIEazii+yMMwmxdUZ1a37LFNfHkgGkYQ3kejPGgOk34SjethCuGYf/NeOSF3K3kgZi9SuWMsTCEeXjjn9mpfSxbiSJIh86kfbmVwk++QGEVZmicKqgeuT/mNEoxfqiI6sB7WPvviJ6M/JM4XGsLgQI/mO9m0PrOS+yajLK6IgVner7V7LwDgsGfYqNL2KGSDtLUkSksojjjsy0PtYgFE8mRjjdMcxhuiMnsqpgYtZ4I4DxclafHf2MzEHTnR2Sim0NT/8U3ZaeUUH/iHMKGYAoDfI7dlrT1eaDciarKvahGnOvTMrCAPFalkG/OPyG1Q9hKIQPdfjdaX1gjHTq3B1GeWgFpfnpw4r2tPseTTVMylyXuHEi2Q7MXMTRqhcJVZdUP6gsElzDxEZaHwpYmfmpAg4nB0FUeKxvzY1qEEDuwjuBxtsB4lFZOL9KB4CklUds6ifHdTMA4aR2tu2Do6VsV23CGHAaoOVNDAqw0hs8ZpEPzs28A0EfrQPT69nXckRwKJRFto0BaEvFVq9sele6wBHLy2c/YZ+I1Q+iGE7zMhIB4oMcE4B0Gwvj3vlGjAEnZLUeyKeipGv/87b0iiVi93RFeWZxihG2LVEfrNJlxl/Q6orefR5nNeiU2viAjyAUJIIuCEyC1LXSlB69EPfJp0ZDUqPHS5UcScU2qcuWe5qojxXj4ac019COA4f57UKiXMJPUbAWCEYGktzIKo0DL7z6j/bJ4ffG1b6sPIQcTPyQcY1Dk+mDqXT6sjw6qlG6NfI4L6YIAD2Maqh4DrIoYZ6SDfSmfCXlH9hblKTjlBrVB4om0wdbq8HNJIxxC+utfOJQFYJPnmyeTsZ/m3P96BgH/0p6hRlG8oovOiCsTgd+W5PqYxAekwEhbDsHxXizLlgy7+t48vLzQoRqb+T4MGILFENIjsZtVE2uj9mnw0/JVT9ULCudrX6oV7aD8iKr45M928G7BaHs8Iv8Crzajx1pG/XIR4pxhndYSfRR4QSmE35MnJCCd4G6Fzmdm0eqmSarymKyqqTJKn0CkEF6V2pl98P8SfAjOT7oicWDL5M2Kuoq04feQJbYGN28EF7qGeXM8c0LJCy6eUFZR2dV4ddtNj7PKCHOXZjqSNqodLmAN7Jm6qN34D6TEh1a5dej0u2WOdzdQbsvr8bhHV03vu3Ji/TzFt5DIZYXiZs5bmuOPlbsw31OHtytYsP1qMjDtDx8a963AUcHfIBq98sS0Sy7U9gGkmTi0HOESU1tnj4Ux4LrkabF6SuoNoeLUeOQ6WBd3NCFpDuh2Aycv4G8itgygtth8N1A8RyAFEOlllzgn3SdJrzehHl0IfhsAkCajjPloKJT8X7KkuVZa+/HjqQ8VHuDDgjuk5qrj9Ghe6vrmGoU68dxfgDl6KTRKcJNAmhmlcavo+U3EcuBxPIHnY2GGscifTCCJgOk9WJbHevzWLLKkyvJDYI8q5AIknsU04J2PyAz2/Zf1ZbcRCyJlryk5fA7DJLVB9FifZS7Mj8Z5XinsZJVbtHViTJBQla3HnUT59bYVNnzpZlyp7I7q+czvQ6/74gOaO9fnOPw8LrcBfpoWsf3mmHY9MoHYOwpfR5BVrfW9OIR0+oFTfLV35dKiarvdiUOCNuoTvncWEofLe7cDQbdVowBPqMPOdpNGAMeK8Rnyh2HpURL+Oq932VxkOxrQjHU5fRRTXgThi3V56HBZ33vWTUtfkd7ZfdqcUp0VBYzoMPPUDwLT6UqzLnwKWeAFpDV5W8kFxSykndA7oSL6Gv1jXgXJ2+jltur6aMu967nFW8kz+dOeyakr41XC9GZCwefixX353xfvfdLcEB8upxRjNz0Gb+ADYTxC9hAkN1pnwh5ktXpvEO1OmHdIfr6da6vFoyQT5eXuoaanz7PTlZFX2aMLtFXs5To00r0NWmj3pu56rOyb13ja0TpXYmmOvbV/y6ZEsHiAx7uhZHvA8sFoAflC7MVMvo3WM5nKdHS9HXcRrXy12eTdhD/SdTF24GLFe/9zGGYLD50GrV5Yq5Dn+cmqzKn2OFVosbVUvSVt1GD2FyHPg8jq5IXiWeE5d+gLhPscUpUf7eYvnKK4Z7b69Jn/hvUM8JS7zicFha841B8p6BqxmdEthdW9McjnP6ttTZ9tma945B2IjdVFMjO1kA1Et8BlUD4mX3hEX1tfJtPX/n9bzCpuQ59NoWsCtHH0OKPdCS6Mr+iX8M2qgOvBFqnPs9OVsUnpmktfn3F7u/Z9DVpo7bgnZ5PvYOWAygvsiqQQ00bJSlR8HqGr64eeUQxrPXro6xEVlNSHm8LFwQkh9A4I1/tvZdXiZI2amw+hT6L3xaurpWspgWb/5tzugOu2Pglo6/URi16/SfS5+nGgJfOXLX7S/LV2744g09tVEYxlCfTJ2OqimCqT0E1phTSogMys6JQ0eej4oxi6E+nz2YBBL5D0/rXJVlKVPuK11MFxbb5hA9sLQCpD1cIk8eY3xKz7b0/TCCqvnxVxxu33J7xhPosBmjtTlpCDjWTuq8O20Sfjvb39vb2j179oovZvSFOhj2pPnPJqs7WmKbpuDi3WyAUFgoFUUh+kcLoK+XVDf/bly9fPvtw1TjMO59FhWfQZyYKCr68Mgekt1bdidFt0iuubO8kN9Y77llOT35lfeQ78SmpxpSgaT2vNLkoEgZCivXyAV5m/hz6PDdZlSkUd8tw42qCT718OTJycq5/IlkVBMWyRme+65fq9XrJ97zuhZXbe+L/OLI6QyHTMC8Oht1u97Z1EVumNDw/pT4SgLhC6kMVyrR61cwTs9I6JC/6ySiEf+aOlCjp1rPrk71h9KnJ6mJyuGn6PD0XSz95ZRnT2Diq8azsOS/f8aeS1b9iB/0HUBagtTvFZ6EI+ZHVRRTw8YK+QFjPb81JH135W598Tvo8K9VYZ6HrTyCrf4Wzf142/wfkU3IuRsLM0X91Se4z1ZsnHTIKqWmF1DRAm6KP+n/ymWbmEZxHuQAAAABJRU5ErkJggg==;" vertex="1" parent="SPAZXxeA5xdZyipbD31G-1">
          <mxGeometry x="27.466666666666665" y="34.25" width="109.48041666666666" height="66.52083333333333" as="geometry" />
        </mxCell>
        <mxCell id="SPAZXxeA5xdZyipbD31G-24" value="" style="rounded=0;whiteSpace=wrap;html=1;fontSize=14;" vertex="1" parent="SPAZXxeA5xdZyipbD31G-1">
          <mxGeometry x="635.1666666666666" y="59.54" width="103" height="25" as="geometry" />
        </mxCell>
        <mxCell id="SPAZXxeA5xdZyipbD31G-25" value="" style="rounded=1;whiteSpace=wrap;html=1;strokeWidth=2;fillWeight=4;hachureGap=8;hachureAngle=45;sketch=1;labelBackgroundColor=#ffffff;arcSize=0;fontColor=#FFFF33;fillColor=#E6E6E6;" vertex="1" parent="SPAZXxeA5xdZyipbD31G-1">
          <mxGeometry y="730" width="1030" height="140" as="geometry" />
        </mxCell>
        <mxCell id="SPAZXxeA5xdZyipbD31G-26" value="&lt;h1&gt;BierClub&lt;/h1&gt;&lt;p&gt;Lorem ipsum dolor sit amet, consectetur adipisicing elit, sed do eiusmod tempor incididunt ut labore et dolore magna aliqua.&lt;/p&gt;" style="text;html=1;strokeColor=none;fillColor=none;spacing=5;spacingTop=-20;whiteSpace=wrap;overflow=hidden;rounded=0;" vertex="1" parent="SPAZXxeA5xdZyipbD31G-1">
          <mxGeometry x="51.5" y="740" width="163.08333333333331" height="120" as="geometry" />
        </mxCell>
        <mxCell id="SPAZXxeA5xdZyipbD31G-27" value="NEWSLETTER" style="text;html=1;strokeColor=none;fillColor=none;align=center;verticalAlign=middle;whiteSpace=wrap;rounded=0;" vertex="1" parent="SPAZXxeA5xdZyipbD31G-1">
          <mxGeometry x="493.54166666666663" y="750" width="34.33333333333333" height="20" as="geometry" />
        </mxCell>
        <mxCell id="SPAZXxeA5xdZyipbD31G-28" value="&lt;h1&gt;Contactos&lt;/h1&gt;&lt;p&gt;Lorem ipsum dolor sit amet, consectetur adipisicing elit, sed do eiusmod tempor incididunt ut labore et dolore magna aliqua.&lt;/p&gt;" style="text;html=1;strokeColor=none;fillColor=none;spacing=5;spacingTop=-20;whiteSpace=wrap;overflow=hidden;rounded=0;" vertex="1" parent="SPAZXxeA5xdZyipbD31G-1">
          <mxGeometry x="788.8083333333333" y="740" width="163.08333333333331" height="120" as="geometry" />
        </mxCell>
        <mxCell id="SPAZXxeA5xdZyipbD31G-29" value="" style="rounded=1;whiteSpace=wrap;html=1;rotation=90;" vertex="1" parent="SPAZXxeA5xdZyipbD31G-1">
          <mxGeometry x="978.4999999999999" y="460" width="77.25" height="10" as="geometry" />
        </mxCell>
        <mxCell id="SPAZXxeA5xdZyipbD31G-30" value="" style="rounded=1;whiteSpace=wrap;html=1;strokeWidth=2;fillWeight=4;hachureGap=8;hachureAngle=45;sketch=1;labelBackgroundColor=#ffffff;fillColor=#FF0000;arcSize=0;" vertex="1" parent="SPAZXxeA5xdZyipbD31G-1">
          <mxGeometry x="301.15" y="493.5" width="195.85" height="207.5" as="geometry" />
        </mxCell>
        <mxCell id="SPAZXxeA5xdZyipbD31G-31" value="" style="rounded=1;whiteSpace=wrap;html=1;strokeWidth=2;fillWeight=4;hachureGap=8;hachureAngle=45;sketch=1;labelBackgroundColor=#ffffff;fillColor=#FF0000;arcSize=0;" vertex="1" parent="SPAZXxeA5xdZyipbD31G-1">
          <mxGeometry x="747.48" y="493.5" width="199.52" height="207.5" as="geometry" />
        </mxCell>
        <mxCell id="SPAZXxeA5xdZyipbD31G-32" value="&lt;font style=&quot;font-size: 11px&quot;&gt;Que estas buscando?&lt;/font&gt;" style="text;html=1;strokeColor=none;fillColor=none;align=center;verticalAlign=middle;whiteSpace=wrap;rounded=0;fontSize=14;" vertex="1" parent="SPAZXxeA5xdZyipbD31G-1">
          <mxGeometry x="618" y="62.04" width="137.33333333333331" height="20" as="geometry" />
        </mxCell>
      </root>
    </mxGraphModel>
  </diagram>
  <diagram id="BdrQL4cdrKm6RFQFndbp" name="Page-2">
    <mxGraphModel dx="2249" dy="713" grid="1" gridSize="10" guides="1" tooltips="1" connect="1" arrows="1" fold="1" page="1" pageScale="1" pageWidth="827" pageHeight="1169" math="0" shadow="0">
      <root>
        <mxCell id="iuKd_Pp8GD_JtyTHeRY1-0" />
        <mxCell id="iuKd_Pp8GD_JtyTHeRY1-1" parent="iuKd_Pp8GD_JtyTHeRY1-0" />
        <mxCell id="B9TV2Sp_-ZcOLSLa0VS--86" value="" style="group" vertex="1" connectable="0" parent="iuKd_Pp8GD_JtyTHeRY1-1">
          <mxGeometry x="-670" y="20" width="1030" height="820" as="geometry" />
        </mxCell>
        <mxCell id="B9TV2Sp_-ZcOLSLa0VS--45" value="" style="rounded=0;whiteSpace=wrap;html=1;direction=west;" vertex="1" parent="B9TV2Sp_-ZcOLSLa0VS--86">
          <mxGeometry width="1030" height="730" as="geometry" />
        </mxCell>
        <mxCell id="B9TV2Sp_-ZcOLSLa0VS--46" value="" style="rounded=0;whiteSpace=wrap;html=1;" vertex="1" parent="B9TV2Sp_-ZcOLSLa0VS--86">
          <mxGeometry y="640" width="1030" height="180" as="geometry" />
        </mxCell>
        <mxCell id="B9TV2Sp_-ZcOLSLa0VS--47" value="NEWSLETTER" style="text;html=1;strokeColor=none;fillColor=none;align=center;verticalAlign=middle;whiteSpace=wrap;rounded=0;" vertex="1" parent="B9TV2Sp_-ZcOLSLa0VS--86">
          <mxGeometry x="497.8333333333333" y="680" width="34.33333333333333" height="20" as="geometry" />
        </mxCell>
        <mxCell id="B9TV2Sp_-ZcOLSLa0VS--48" value="" style="shape=actor;whiteSpace=wrap;html=1;" vertex="1" parent="B9TV2Sp_-ZcOLSLa0VS--86">
          <mxGeometry x="767.3499999999999" y="45" width="34.33333333333333" height="60" as="geometry" />
        </mxCell>
        <mxCell id="B9TV2Sp_-ZcOLSLa0VS--49" value="Mi cuenta" style="text;html=1;strokeColor=none;fillColor=none;align=center;verticalAlign=middle;whiteSpace=wrap;rounded=0;" vertex="1" parent="B9TV2Sp_-ZcOLSLa0VS--86">
          <mxGeometry x="767.3499999999999" y="80" width="34.33333333333333" height="20" as="geometry" />
        </mxCell>
        <mxCell id="B9TV2Sp_-ZcOLSLa0VS--50" value="" style="line;strokeWidth=2;html=1;" vertex="1" parent="B9TV2Sp_-ZcOLSLa0VS--86">
          <mxGeometry y="130" width="1030" height="10" as="geometry" />
        </mxCell>
        <mxCell id="B9TV2Sp_-ZcOLSLa0VS--51" value="Img Carrito" style="text;html=1;strokeColor=none;fillColor=none;align=center;verticalAlign=middle;whiteSpace=wrap;rounded=0;" vertex="1" parent="B9TV2Sp_-ZcOLSLa0VS--86">
          <mxGeometry x="944.1666666666666" y="65" width="34.33333333333333" height="20" as="geometry" />
        </mxCell>
        <mxCell id="B9TV2Sp_-ZcOLSLa0VS--52" value="" style="rounded=1;whiteSpace=wrap;html=1;" vertex="1" parent="B9TV2Sp_-ZcOLSLa0VS--86">
          <mxGeometry x="378.20741666666663" y="710" width="282.70925" height="30" as="geometry" />
        </mxCell>
        <mxCell id="B9TV2Sp_-ZcOLSLa0VS--53" value="" style="rounded=1;whiteSpace=wrap;html=1;arcSize=50;" vertex="1" parent="B9TV2Sp_-ZcOLSLa0VS--86">
          <mxGeometry x="343.3333333333333" y="150" width="386.25" height="40" as="geometry" />
        </mxCell>
        <mxCell id="B9TV2Sp_-ZcOLSLa0VS--54" value="Que estas buscando?" style="text;html=1;strokeColor=none;fillColor=none;align=center;verticalAlign=middle;whiteSpace=wrap;rounded=0;" vertex="1" parent="B9TV2Sp_-ZcOLSLa0VS--86">
          <mxGeometry x="454.91666666666663" y="160" width="154.5" height="20" as="geometry" />
        </mxCell>
        <mxCell id="B9TV2Sp_-ZcOLSLa0VS--55" value="" style="rounded=1;whiteSpace=wrap;html=1;rotation=90;" vertex="1" parent="B9TV2Sp_-ZcOLSLa0VS--86">
          <mxGeometry x="978.4999999999999" y="300" width="85.83333333333333" height="10" as="geometry" />
        </mxCell>
        <mxCell id="B9TV2Sp_-ZcOLSLa0VS--56" value="" style="rounded=1;whiteSpace=wrap;html=1;strokeWidth=2;fillWeight=4;hachureGap=8;hachureAngle=45;sketch=1;labelBackgroundColor=#ffffff;fillColor=#FF0000;" vertex="1" parent="B9TV2Sp_-ZcOLSLa0VS--86">
          <mxGeometry x="614" y="243.13" width="183.38" height="170" as="geometry" />
        </mxCell>
        <mxCell id="B9TV2Sp_-ZcOLSLa0VS--57" value="" style="rounded=1;whiteSpace=wrap;html=1;strokeWidth=2;fillWeight=4;hachureGap=8;hachureAngle=45;sketch=1;labelBackgroundColor=#ffffff;fillColor=#FF0000;" vertex="1" parent="B9TV2Sp_-ZcOLSLa0VS--86">
          <mxGeometry x="817" y="241.56" width="187" height="170" as="geometry" />
        </mxCell>
        <mxCell id="B9TV2Sp_-ZcOLSLa0VS--58" value="" style="rounded=1;whiteSpace=wrap;html=1;strokeWidth=2;fillWeight=4;hachureGap=8;hachureAngle=45;sketch=1;labelBackgroundColor=#ffffff;arcSize=0;fontColor=#FFFF33;fillColor=#E6E6E6;" vertex="1" parent="B9TV2Sp_-ZcOLSLa0VS--86">
          <mxGeometry y="5" width="1030" height="135" as="geometry" />
        </mxCell>
        <mxCell id="B9TV2Sp_-ZcOLSLa0VS--59" value="Productos" style="text;html=1;align=center;verticalAlign=middle;whiteSpace=wrap;rounded=0;" vertex="1" parent="B9TV2Sp_-ZcOLSLa0VS--86">
          <mxGeometry x="266.0833333333333" y="70" width="34.33333333333333" height="20" as="geometry" />
        </mxCell>
        <mxCell id="B9TV2Sp_-ZcOLSLa0VS--60" value="Promociones" style="text;html=1;strokeColor=none;fillColor=none;align=center;verticalAlign=middle;whiteSpace=wrap;rounded=0;" vertex="1" parent="B9TV2Sp_-ZcOLSLa0VS--86">
          <mxGeometry x="360.5" y="70" width="34.33333333333333" height="20" as="geometry" />
        </mxCell>
        <mxCell id="B9TV2Sp_-ZcOLSLa0VS--61" value="Envios" style="text;html=1;strokeColor=none;fillColor=none;align=center;verticalAlign=middle;whiteSpace=wrap;rounded=0;" vertex="1" parent="B9TV2Sp_-ZcOLSLa0VS--86">
          <mxGeometry x="463.5" y="70" width="34.33333333333333" height="20" as="geometry" />
        </mxCell>
        <mxCell id="B9TV2Sp_-ZcOLSLa0VS--62" value="Quienes somos" style="text;html=1;strokeColor=none;fillColor=none;align=center;verticalAlign=middle;whiteSpace=wrap;rounded=0;" vertex="1" parent="B9TV2Sp_-ZcOLSLa0VS--86">
          <mxGeometry x="549.3333333333333" y="70" width="34.33333333333333" height="20" as="geometry" />
        </mxCell>
        <mxCell id="B9TV2Sp_-ZcOLSLa0VS--63" value="" style="html=1;shadow=0;dashed=0;align=center;verticalAlign=middle;shape=mxgraph.arrows2.arrow;dy=0.6;dx=40;direction=north;notch=0;rotation=-179;" vertex="1" parent="B9TV2Sp_-ZcOLSLa0VS--86">
          <mxGeometry x="270.375" y="95" width="17.166666666666664" height="20" as="geometry" />
        </mxCell>
        <mxCell id="B9TV2Sp_-ZcOLSLa0VS--64" value="" style="shape=image;verticalLabelPosition=bottom;labelBackgroundColor=#ffffff;verticalAlign=top;aspect=fixed;imageAspect=0;image=data:image/png,iVBORw0KGgoAAAANSUhEUgAAASAAAACvCAMAAABqzPMLAAAA8FBMVEX+/v7t7e3////90xzs7Oz4+PhSFw/39/fz8/Pw8PD09PT7+/tSFw5CAABEAABJAABLAAA+AABQFA//1xxQEghODgD/2iRNCABHAApOEA5MDA1MBQBEAAf/1yj/1Cv/+vmnkIu0npvp3dvz6ef/1Cr4yy3uwC3CrqtjNjCGZWF3VE/MubfXycZoQDu9jiZdMCrOoCmsfiLarCvFlyecgn6gcR+Qc2/Fs7Hg09LUx8VxTEeTZBt0QhJ0UEy2iCNlMAqCURdVIBnluDVdJglWGwaJWReaah1YJyGZfHqLbWhrNw/JnBg1AAB6Shns49+EVBhnkIagAAAchElEQVR4nO1dC1vaTNNOUiHnhEMCKGqEVBGB2gNVtPZgT2rfpz7//9+8OzMbSNjlpEFpr2e/6/rezmOLw52dwz0zu1E0hS1NV2FtKSgUtlCw4UeaLREK+I8UFFSdPoEEiwQ1LZgoGCQYKJgkWPT30sLWhumjKqSDvjVRSEkUQsGWCAVlotBWWqGttEJbRlohUyIYW2mFttIAbYo+6wRI3TCAHqTPfwA9I0B/iYlpuPQtXCQVSLBRsCVCAQWFBJ0+gQSLBBUFgwQTBVMiGCioJFj0CRumj6ro/625S1H/ziefmz6K+nc617z0USQALeHM1A1zruvTRwbQfzvoP4BWAWgtTlFLO0VFdIpK2ilqWSetmqZh2BujzzgPIqT5BxG4/INEIfH2HGn+xejJ0xdDYfzFUgI9bDMtjL8Y/0n7onVwMGydjwwj+WLPp8+GZdKG0TsLXc/3S77vude3I/jefy1ZXVUhZluta7cUFPlyglJ5cMEQ+lsBWtG56sbFsTdGh6+w/PFe+1vJ6ooKRQduyLeOEwSBg39winW3xzfAMwGU8fbPRRHg9565Dm0a3w1uTm9C1ye8gvIBSwSfVh9y0igkZNXC9VSC8KNCdOchHHX3sjWKIy2K+62BRxC5Q/up9ZkIm0FWVWPooVt2T0bMcOxCoWDbSnQx8JiRFR2388T6pHbiZnAx49wtOmBd5wqAkyw7ajG37TCERtq8Yvtfz8XM+2vAIbxuawwWPQWRdgGBzQmPI7ZPWIptmpYMoKflYk9fKjWGPsMncNpKYXppfZcBVPRaLMPun3c6vVFMJvaMAD35DlLvQ7aBHPdCmdo/iFDHhVB2c3vadD223GBw0NaecAflFA4fQQ4Vs+UzDEpnmrB/EKFuHRAaZ9gBywMGPd1cmz5TZJUWdTJ52lgggYMrEZInj0tXUpvvIZ1MMzqGL+/HthQgu112ik4mv3ZCd4A0bS36LOysLpHaa8JWXJr7bAmmYWGIL9ZPYtEF0RZqFh2HUuwEKQZRCwBahz6bRjWM8zJ962Z4ITUyu+cBNqHvlctl1ysFCJPjdie9+bz0yeygDQHIbIdj71IeRrbopguR5xRLLMO+aMfxqDe85pzN/xgpfwdZNQ3DMGXagULGJfjgYgUNxxu0JZtI6XrubZsZFCxFUy4GLiRHjtfVDEiODO5M10RWOUDcwSvog7iDB8GWCGjzk5ScFOLRkBTi0RADRrvXOej02vgtxtFQAYEpZB2gAwq+Nbhr6WiCr1Y6Z/fp/6poHSSyDKHu5enpoDs8v9eoorhIH8QkUUEQkmjIAUKB+0XOzDKCvkAoLCEocWtQ9jzf88rHB+CEreQX6fjXCn10QI33hx92aROV70RfbU+DprVv6uCJ6vUwCMJ6iX16617RV1HOWiQ8BVk146FHRQv2bQLfHcbmFDmMrqHws3O1X629C3bwb/o3I3lCNF4I/E0IH+ok8Z8lR2fxIn3Sqc8GdFY1ZXTsZ9IX/7RPmdc4PHfhL1TCo+qLF9WjqwZ9V/cgkqdEqaW0/enqY8mHyP8HcTGt3awn1WX+oEPgVBOFtE4Z8Nl9x/BhCO2/8bivPrmXp0RpKwMKEoTNUqkZ8o8P3JNY+3O4mBbX0bqCkudf+x5/4B77DolCZhtoVrHxYe8Frdrb7w0wx2LT6Ym+empFl54XXHaHw7uP41J/6ab9x+wgTRvg/imFw34cx/1hUMJcuFS8SPpZ8XHIwNj+fFjlAL2oHv7LfLUDm+F2kZnZo+FFTN/BGA2LPiSPTt1p2zkDlITD3J00EQivG2sse2GBKL4jThW4QwrC1hk6IP/rGB+29l7525QGDhb5aptKj/hHLT7w8XmEN7G6wEkvJM9ZJ03r0WSVCxYJpmr1MH57t8rkS3S8OhqQx747e7o9NLDdT7UX6VX7+rmBjIv5K2Whr56gpbUHgLdTOtFk+giCwTcfWQYJ1kwhd7JqtrFx0/wYpb4E+w68Mu93NC1ugt/Y+bL3Iruq+z/dCgAZuN0Z9FUOUXSHFWyWaor6CK5j65nJqnHSBP9cz5Yw7GhYDije3EVIMSrfD18Iq/a6vkM+97q/wMyyn45JA/ul2sZzMU4gyr3UDsA8VuuFJfruTUj0iu7bqggQpES7KfoqsNeZCA3gQ/2DzQeo78Jm927p+evIMulLKPGJy2s7DlCMmgQf8NVvXPLV3iBefhPZI/i9QT3SnpisqquRVS1CHhAOyAHZStzv9doKVZxtrZW0mBnFmHZAEzPDlAj8Vfl8eYS0WzAy71zTHkhW1a1ZZNUAYmYsEgok6PMF7Q6TEreNu0YZdV2XkdWbFi/2aKNTyrArpSOZgXEzO/wxpq/m0luo7bFUot5VppSzDEGwFgk6CWsgq0YL43e5g09eaZWbOIgQjIs9SjRAV+2+no0PQ2jvVUhV1n9GS4Z7vaBAhd/xWC60uWTVHCGr8O8QDe0A8iHyOqHXwcxG6ftY4/g5wwGNzew1cl23tbyNKR2IDu6FucFUIx7Agw9vkCooF2XOV/H/uVDsseNrKAhuf96fj8+L2nuI9s3uKqG+DSHA76wVoEftINW4pceOZkFYFAPP8+pU8Ljpa0q3xAxnimLI1uF3cELujHaQfOEvLB0YGwuQce6lzCI6KUFKXO/EoxOPF3taLcwBdl8tMLAX1deQDPnDFTYQ+43QYyud5QhQvmTVbmPtp3SC0ZFFdAxnPfgRHyBzfMwUGz9mRvgxQB/Awsr3q2ygggYGjgDlTVZNtjglLaQFWyIU0kJCVtkfTTMiilGMbaiLjjAn9G919vcMFt39sT/a/iahGFNr7xfLFcPLlTYQAuSUbjUlo5yJy0oLCVkliQRLTQk6FySVwIeRVZASioFjCDbli/VBrCI51KIzYGLorj0pxZC4oNLBCny1kJjYUNtMsmr0cMt45DZYvggOyB+Z5NjY6vkBdpF33yxyQGwdwT/3zlcCyI7hAUBxegFAz9JZxTkoRg4ukWJoHXJAHT3x/AyhEe6wnd8vBYcjuqCvkG96Fyu5IBut2uvJAHp+smp1wf8GPlIMmwrOLF9MdjFw7BOqcQgU4+i94LOrX73VAVIOwM+V2w/cQfPIKgGkpX0Q56eikJDVLEAWxe8yGUV0HGIFNOJnI7CZ2iITFCjG/q9PwhZ6GED4BLxoGqCtNECJPoKAAG1NAUQfrBu4JEJBIuiiYBs6j1k0B6XdUj40UhgFhGUxVj8qF6U1jtr78pFoYkdhBdzJSj5IuYTHUj/RbImmY0o6X8iikF8epJxCjyI8Rgek9JBieAfWhA+qcRGLrL+mKUb1dfm3JCt6+Y0B1LxbKcwr+Fwc98BYI1l9mK1qZz4WyTjFqMMUT/PESLkvHV1UpT7tgNhW4a3DqX31ZQcKqNFCVCZLL1DZ1SmPNo1qGLRlEorxseng2Ko50QGrIE5x9920ge1f7cgq0y+qn6Bk5vZWsDEdyq51MrL1AfSQfMGkVnmpSxSD8kW3Z0x0UEYe1jg+iA6oMaPyegSTZeFgtVTaJk3KfW2jdpCBzy24ianeQyXpoZ4KgBTV0m3UxAG5s4j93tU2wrwi2Wh5kL9f5gVQLk6a5jAdt48UI74Bd83yxbSHHEraqOiAgorYG+M/e7cLqXi4Ur0DEwzINkY5kVXsONg6cTYSChKhQJJE0G0bxuFhyxxQkZX8pNfW8cORD+rn0jYqC1VXO5XGLGL2EugqIL1aLoQVl2ZXJ+VAhYSsjvUBsioKFmeuaUgWkdVMoignqwqMQYFKnGJQNuh2jEliBo1WaRuVOSBGPGZVPqpvsT3mf1ylw8q20GmAD8ic4VvnJ4proBoaUQwyBRtK0g6jGFbKl5lJG1V0QEVnd3btvvYTAplTOh0tnIZJb6EW0Fy/ZWzKGDDFb2qj2pxinMapaMhHxYU2avWQJcvbs5tjmAJgHdK7vddolIFZwiKA7BiaAuHA2oxDvYUY4qrj33KKQT2xvjl5YkaPIrwQzPd+s6+/O7c0dPiNTy763fN2pChwEnHGZpr8Z+0OynbeyMyzsyrxQfPJagKQgvFpQjHQAbWsyRMzqAqyfTVd46i92ZX5pWR3/a+K/0MDwsxXe75zenzd9P6RRzXlYgIVzOYzGzPzIKs8ihEzywgUqwoSQU8LyLCcMrVRo9MQ88UIKSB9XNQtObI2avUt0nV5DlQ9+kx/v3r4hQYZwM0F4Ou9jibJjOz2SWJ7jHDANq6fFLimnLlaEsEShSwKj8+DLiCAl6iIaPeBcARONM472MamRqs7Tbeqh99ZEN8RMmuOz/fEIKt7n7xGpThZwaA1jAWAopvbCWxw/oXBGW1EZxVKVA72HnSoV7EcmuW+E19m9l05xdgDLlrxxToH4vOtOaFntcP3pcbOBKPAL3emPbV2Vk5Vr3mDdbQRnVVwiMEpKafclopOcKxOFDLjU6IY0zWO2iewnIa0OM0cz+6b9IarHb77XW/Q2sYgOcXxlU7ZS4FG5Uy/tRFc7JIl9nXeHgaAGFrxZAcZdzMoxluv4jjb32Tt5+rhZ4HfV2uHb9+9ef/+zavfgJCX3ULQcc7UHhUnwFpS+srT59pBUMNLyloKHq4EL8oVMrByL7ZR2R6B71mW5oiHVzsNsQT7ooqr9hayruDaSIcyFhscLz0DQk7odCPIKgychAN6oPaojDQMzwQwp2iOcFJTbKPu/YDgvfOvzMD2vzTmDTbssdzRSQoriQNiqTP1CpIdhE/KjzP89HnIqj4swYllHlZgShDyxJN7HchhdFmHCC+0UauvwAFVmrIBKoZdZQ77YMbp4kM4G1NYrQMT2GE6stkstjrM6jJqJ2Ge+KlEsNJfPC+yamLASHyC3ceY7pSK55ZqUeGsIrRRq1+bFTQ8GT7vd+fQV1i1Dw0HD3RwCqvAWFkxuEl7Jfu+jF7afn6yqt5DUhZcR8neTgZ9b2PKiiRt1EMsY0hzaAxuM5LH8T9H/+WUrs8jhZ+Mmlh5YmMeZmf2asFHXQNAWwr4Q/AJNg+4Ph8FGvSRYoht1L0PjeKMFKjG6P3C0TMosuFD8D72IqWP+IwDaWJ2YOv1kxUBWgtZtUdoVd4d9wnjefoQLyYR26hQKITqvWRAqPrVr0iqIuJfC3fw5HPduz7FW6ucJJef+G1IOI6jvDurGR+0HFnVNTyU4vin/PTJeJ6e5jim/S01BFkEEw2MEQxmPNIeEP347fhPvxo01Bckx+r87BiIcsAIoHNt5kZWJf67IEYxMaQZpm4bOOaSOn2i9YIS11s0FyrxSLfJ/q+dOcPTtXcTbw8HOrZT/AxSiyxAHYzz90oqVmWiWMJPxShmpFHIpbNqjkJEKBVY4hOc/S1uC21UKLIyvib253lyVPHkw9MMkn/SFe3a2190tIwvL9s/sy+IjanPT1Yt9g9G1yU8z1Zy6PIE3dbwPg4pxcCNJemEzWNnLPW+KmejXvXlq++0iRAlt589N4OeEet2z83FLKSkXSy7JpcnYHNK5oipxgHHnEUIXsOJ1Rk5NKP3jWA66lX3sXGGHf+il502t9uQYnjn6wBo1c4q/lnvlOkEBs7TM8qBNY4fQo3jX3RA4axhjlnHf97ubIvZdZUGzf1LamJkAYpBA69lbMYOYp+g3VN0d+puR6PCojipWUOKIXVA6KBnHP+psc01Ofo7Xkc4R13qgj92mlM1tOgfTKUfD1AOThoXc2dDl6J7+QxrHOKkJs1ESScU97DBU5GWP1j4qmx/FuYbXkLJn9lX1PIdJwinKkQRjtwfGM9OVnnzkglG4bzYRISaTTkO+5+3pdweMHClkOLPXrkVyU+w5A+te3sIOWFxqsYYQUXIP9AeGebnktVlE0X8RyAY7RNvHHglbVTcJTu/xAyIs1epgSE+YmyDihtAemsYVKWbBghSSL+1eqK41hOHZtTit2cyRyzUOF5DYNkWJzhZbEMHJCZNhA9EPWEsFhgrDWEbWJGaHjiPbmhg+uHBZx0AMWFEZ8Ekh8GgjVqslCRWlLBXCYkH/+NUhAhPSaUT1EemasDgZngyBZCCE+W3G0BWp86sav0ZmSC2USuyAIbsVTb6QfGL/UT4Rzwcuh320C0o+tanD00lI/ePBuixBbNpgHC0QjKpST5VBkLCXr8IZsQcDWP3kpYRsH4IUmdgFAZA0Zy+ZBAnTvAA9CMLZvlFMRT4hTdCMRULGSywSYhowl4lyePXUJ5cUzgMTyOISIXToDhd7UicNI9ikpKrrP6aKbkmw0L55UGYNcxso0IVcFecpx+Ha4ntMX6xDVYpuKYa+izH65OmcoAcfrJumTzo6c6stvmkphDh4Svt/pTgM5u9Mn4KZTHRKslnOYxHoD4aZTzTYb5MieIjfWu+Jw4nk5qyryQhC2ztf5vFXnlr6IuAz1EJKcaJoU4AEo5NEUBr4WIPPdTL/o/Oqwo2UT2qV4q7UnwoeRSnyxPTqwRCWrl3tYNtgrapzt5BjKyCJp2N2kEaDZOLNgFumOEjoRHU5GIOSDSw1/KpNKy44TlPQ50HENaDvN7jyx05OmkcNZMUm9leqEj9c3KwWeaAjmaQD+6zvKE11kcKEFUU++ZSFcVlyCoMC40jOwqFBYJNQhLmDf2ySTUOyZyCK4vv3MCcnd+CA6oeYiCXHHwhSOuXylgfHtCzACk4ZOa1eU0aNZ09QDUO8+kBKhLyI6tmR07IYVbDfyXFp/q2LC0bEflwZJd74FRRMfDjiT6GbAdhc94J7x/f1VAEgB5INQwccBdp996H3fCtvBOIEazii+yMMwmxdUZ1a37LFNfHkgGkYQ3kejPGgOk34SjethCuGYf/NeOSF3K3kgZi9SuWMsTCEeXjjn9mpfSxbiSJIh86kfbmVwk++QGEVZmicKqgeuT/mNEoxfqiI6sB7WPvviJ6M/JM4XGsLgQI/mO9m0PrOS+yajLK6IgVner7V7LwDgsGfYqNL2KGSDtLUkSksojjjsy0PtYgFE8mRjjdMcxhuiMnsqpgYtZ4I4DxclafHf2MzEHTnR2Sim0NT/8U3ZaeUUH/iHMKGYAoDfI7dlrT1eaDciarKvahGnOvTMrCAPFalkG/OPyG1Q9hKIQPdfjdaX1gjHTq3B1GeWgFpfnpw4r2tPseTTVMylyXuHEi2Q7MXMTRqhcJVZdUP6gsElzDxEZaHwpYmfmpAg4nB0FUeKxvzY1qEEDuwjuBxtsB4lFZOL9KB4CklUds6ifHdTMA4aR2tu2Do6VsV23CGHAaoOVNDAqw0hs8ZpEPzs28A0EfrQPT69nXckRwKJRFto0BaEvFVq9sele6wBHLy2c/YZ+I1Q+iGE7zMhIB4oMcE4B0Gwvj3vlGjAEnZLUeyKeipGv/87b0iiVi93RFeWZxihG2LVEfrNJlxl/Q6orefR5nNeiU2viAjyAUJIIuCEyC1LXSlB69EPfJp0ZDUqPHS5UcScU2qcuWe5qojxXj4ac019COA4f57UKiXMJPUbAWCEYGktzIKo0DL7z6j/bJ4ffG1b6sPIQcTPyQcY1Dk+mDqXT6sjw6qlG6NfI4L6YIAD2Maqh4DrIoYZ6SDfSmfCXlH9hblKTjlBrVB4om0wdbq8HNJIxxC+utfOJQFYJPnmyeTsZ/m3P96BgH/0p6hRlG8oovOiCsTgd+W5PqYxAekwEhbDsHxXizLlgy7+t48vLzQoRqb+T4MGILFENIjsZtVE2uj9mnw0/JVT9ULCudrX6oV7aD8iKr45M928G7BaHs8Iv8Crzajx1pG/XIR4pxhndYSfRR4QSmE35MnJCCd4G6Fzmdm0eqmSarymKyqqTJKn0CkEF6V2pl98P8SfAjOT7oicWDL5M2Kuoq04feQJbYGN28EF7qGeXM8c0LJCy6eUFZR2dV4ddtNj7PKCHOXZjqSNqodLmAN7Jm6qN34D6TEh1a5dej0u2WOdzdQbsvr8bhHV03vu3Ji/TzFt5DIZYXiZs5bmuOPlbsw31OHtytYsP1qMjDtDx8a963AUcHfIBq98sS0Sy7U9gGkmTi0HOESU1tnj4Ux4LrkabF6SuoNoeLUeOQ6WBd3NCFpDuh2Aycv4G8itgygtth8N1A8RyAFEOlllzgn3SdJrzehHl0IfhsAkCajjPloKJT8X7KkuVZa+/HjqQ8VHuDDgjuk5qrj9Ghe6vrmGoU68dxfgDl6KTRKcJNAmhmlcavo+U3EcuBxPIHnY2GGscifTCCJgOk9WJbHevzWLLKkyvJDYI8q5AIknsU04J2PyAz2/Zf1ZbcRCyJlryk5fA7DJLVB9FifZS7Mj8Z5XinsZJVbtHViTJBQla3HnUT59bYVNnzpZlyp7I7q+czvQ6/74gOaO9fnOPw8LrcBfpoWsf3mmHY9MoHYOwpfR5BVrfW9OIR0+oFTfLV35dKiarvdiUOCNuoTvncWEofLe7cDQbdVowBPqMPOdpNGAMeK8Rnyh2HpURL+Oq932VxkOxrQjHU5fRRTXgThi3V56HBZ33vWTUtfkd7ZfdqcUp0VBYzoMPPUDwLT6UqzLnwKWeAFpDV5W8kFxSykndA7oSL6Gv1jXgXJ2+jltur6aMu967nFW8kz+dOeyakr41XC9GZCwefixX353xfvfdLcEB8upxRjNz0Gb+ADYTxC9hAkN1pnwh5ktXpvEO1OmHdIfr6da6vFoyQT5eXuoaanz7PTlZFX2aMLtFXs5To00r0NWmj3pu56rOyb13ja0TpXYmmOvbV/y6ZEsHiAx7uhZHvA8sFoAflC7MVMvo3WM5nKdHS9HXcRrXy12eTdhD/SdTF24GLFe/9zGGYLD50GrV5Yq5Dn+cmqzKn2OFVosbVUvSVt1GD2FyHPg8jq5IXiWeE5d+gLhPscUpUf7eYvnKK4Z7b69Jn/hvUM8JS7zicFha841B8p6BqxmdEthdW9McjnP6ttTZ9tma945B2IjdVFMjO1kA1Et8BlUD4mX3hEX1tfJtPX/n9bzCpuQ59NoWsCtHH0OKPdCS6Mr+iX8M2qgOvBFqnPs9OVsUnpmktfn3F7u/Z9DVpo7bgnZ5PvYOWAygvsiqQQ00bJSlR8HqGr64eeUQxrPXro6xEVlNSHm8LFwQkh9A4I1/tvZdXiZI2amw+hT6L3xaurpWspgWb/5tzugOu2Pglo6/URi16/SfS5+nGgJfOXLX7S/LV2744g09tVEYxlCfTJ2OqimCqT0E1phTSogMys6JQ0eej4oxi6E+nz2YBBL5D0/rXJVlKVPuK11MFxbb5hA9sLQCpD1cIk8eY3xKz7b0/TCCqvnxVxxu33J7xhPosBmjtTlpCDjWTuq8O20Sfjvb39vb2j179oovZvSFOhj2pPnPJqs7WmKbpuDi3WyAUFgoFUUh+kcLoK+XVDf/bly9fPvtw1TjMO59FhWfQZyYKCr68Mgekt1bdidFt0iuubO8kN9Y77llOT35lfeQ78SmpxpSgaT2vNLkoEgZCivXyAV5m/hz6PDdZlSkUd8tw42qCT718OTJycq5/IlkVBMWyRme+65fq9XrJ97zuhZXbe+L/OLI6QyHTMC8Oht1u97Z1EVumNDw/pT4SgLhC6kMVyrR61cwTs9I6JC/6ySiEf+aOlCjp1rPrk71h9KnJ6mJyuGn6PD0XSz95ZRnT2Diq8azsOS/f8aeS1b9iB/0HUBagtTvFZ6EI+ZHVRRTw8YK+QFjPb81JH135W598Tvo8K9VYZ6HrTyCrf4Wzf142/wfkU3IuRsLM0X91Se4z1ZsnHTIKqWmF1DRAm6KP+n/ymWbmEZxHuQAAAABJRU5ErkJggg==;" vertex="1" parent="B9TV2Sp_-ZcOLSLa0VS--86">
          <mxGeometry x="51.5" y="36.25" width="109.48041666666666" height="66.52083333333333" as="geometry" />
        </mxCell>
        <mxCell id="B9TV2Sp_-ZcOLSLa0VS--65" value="" style="rounded=1;whiteSpace=wrap;html=1;" vertex="1" parent="B9TV2Sp_-ZcOLSLa0VS--86">
          <mxGeometry x="824" y="30" width="68.66666666666666" height="80" as="geometry" />
        </mxCell>
        <mxCell id="B9TV2Sp_-ZcOLSLa0VS--66" value="Registrarte" style="text;html=1;strokeColor=none;fillColor=none;align=center;verticalAlign=middle;whiteSpace=wrap;rounded=0;" vertex="1" parent="B9TV2Sp_-ZcOLSLa0VS--86">
          <mxGeometry x="841.1666666666666" y="50" width="34.33333333333333" height="20" as="geometry" />
        </mxCell>
        <mxCell id="B9TV2Sp_-ZcOLSLa0VS--67" value="Login" style="text;html=1;strokeColor=none;fillColor=none;align=center;verticalAlign=middle;whiteSpace=wrap;rounded=0;" vertex="1" parent="B9TV2Sp_-ZcOLSLa0VS--86">
          <mxGeometry x="841.1666666666666" y="80" width="34.33333333333333" height="20" as="geometry" />
        </mxCell>
        <mxCell id="B9TV2Sp_-ZcOLSLa0VS--68" value="" style="endArrow=none;html=1;" edge="1" parent="B9TV2Sp_-ZcOLSLa0VS--86">
          <mxGeometry width="50" height="50" relative="1" as="geometry">
            <mxPoint x="824" y="79" as="sourcePoint" />
            <mxPoint x="892.6666666666666" y="79" as="targetPoint" />
          </mxGeometry>
        </mxCell>
        <mxCell id="B9TV2Sp_-ZcOLSLa0VS--69" value="" style="shape=image;verticalLabelPosition=bottom;labelBackgroundColor=#ffffff;verticalAlign=top;aspect=fixed;imageAspect=0;image=data:image/png,iVBORw0KGgoAAAANSUhEUgAAAOEAAADhCAMAAAAJbSJIAAAAhFBMVEX///8AAAATExNcXFzn5+fAwMBwcHBHR0fd3d3V1dX8/Pzz8/M6OjpDQ0Otra2FhYXv7+8uLi7Kysq3t7d7e3vj4+OdnZ2ysrKLi4tiYmLHx8fX19ccHBybm5uqqqokJCRRUVE0NDSKiopsbGwoKCiAgIAXFxcNDQ0eHh5WVlaTk5NgYGDDl8T0AAAJb0lEQVR4nO2daVvqPBCGBVlbFxYRQUFwQ/H//7/z8h6P5knTZibNJK1X7o9K2jxtJ8tkMjk7SyQSiUQikUgkEglP5P0rK/NR7Fq6Mxl0SLzNY9fUkcU7TeB/vMauqxt7ssBO5zZ2ZV24YgjsHPLY1XVgx1HYWcaurgMHlsJB7Oo6wFPYiV1dBy55ClvYK97yFG5j15dPzlP4Ebu+DsxYCrtZ7Po6MBpyJI5jV9eJ+9vrCp4eVIWb2JWV4FlVeB67NhLMVYWHSezqCLD4BYZoAcY9x9i1keBGVbiLXRsJwBA7bZxB2cBxTz92dSS4UBXexa6NBE+qwsfYtZFgDZ/pb+wRJ7/fEMGbcxO7NhLcqQr3sWsjAU4iF7GrI0AOA7e2uvcrgVlyG32KVsBhNW2jK8PG+Ncb4hkobKFP0c4nSOy2gLfhhjX62nbaCOdjW9gv10QYK54Zfam4UfToEomr/U3jia6QtVjcHKZ0hS01RM6K54X9ag2E45FopyGuGArn9ss1EE6P2ItdWSdYy/KPsWvrAG9F9zp2dR145gg860PZUY/OSC24XxBKTKDlnjHuhcbEmwVlUJbjU4RlgQtSEYiC4cxHcSbLjI6Bu14zCqJCkmlcutZzA98L0xsBPsUHRsGQCsG1yzND3afIWGULqHDyphbkegVxlY1ROqDCmp7dc7U0w6cYUCFY0ju93BdHtfgLvVxAhTVXWFxb4nAKnQ3pX3kIj6IHDIdTiKMSh5CDD7U8vSkOpxBWq10WydC5T35E4RS+qMUYPppvHJ37wRSiGa6pxVTgCmRnZDCFHiJ/VuoVyIYYTKGH6C107lNLBVMIZugW+IOzL2qcYiiFI6faaYArg2qIoRQu1UJvjnE/8KUPiYVCzYAhmnlHLKQDj6mz7pOAJm5KKbHeq0W2tNv0py4fmE57fIrOwcytce67CkRDbDDuu3v69os3AvdoirYYYo2ImH3supM4uAvEKVhjqROZ1g5DvKqhMLNfvgEwYjCKtKFHpA1+yzjabxCdegGivF2ncagXbY/OkOHADoz53wgFBgPwW64IBTB1Qs34ULZzHxon2uwJgpIpzQbYDiNOyAgs0XUJBULMgOEd1s3Ccg8fxL29QACFfje95ODKIAxxAyjEcUjtQHQwRELUUQCFEChS1ww1n+Kj3fEaQCF8VvV38nINUV4hmuGMcodq4Hr2JATyCr1v5IUu3G6I8gohcNJHVgT0KVqrLK+wq/7cx4Z6pnNfXKEXdz7CywYirhC+qXcv++lfoc62X4srhEU/P1mCsO2y1VlaYQbufD+7stAQbcvJ0goFzFCrgW0tUlohpvOiCbDCMkRphWCGnOj8KjAJgWWKKqwQvX91/IgqLEMUnuOjGXrb4Ao+xcdhJfBCDtW//QI2j19W/xZa0jrufATCHBuEv4wPa/vNouAxAWlsKSXUcucjzKyZgbj0mCtgY79dBHwmXhnbbxcBn8lzmrnK5tEMtbFSQ6ANJ6gw09cGwSUsuJyR/YbB8ZvDKn+x3zE0nvPKNM8Q/ZqhloTgYTwqBTqWffnvfujBwL6/KP8l7OTynZgTnfsVkzjB+FLv7nyE+vwEZ8CYzMJ7eieqL11QIawvfHIFWEHnfrkjVlAh1MB/omqqEcgpxD5ZIOs/pOUpN0Q5hdy1WjZEn6KcQu56Oxuic19MITtmgg0xxkNMITvuhQ+4NUuTEIgpBD8DJ0MAHVqQh5hCyJPHTS9Ag+bcl1KIMYQyBxlNwDddZohSCtFV5NWB8QMYYpmjS0ohxCP6c+dX3KSs8lIKSY+3LhgwXPKhCClEb59Y7l+4S8nanZBCjEcUS6RO+VKEZsCw/EXd7ckHfIqP4/txkXv4lPfG32iMwIsxN5YYwbqh3OGMOHCKh1N6ARqxpX0h1BueeLbfPQByZtgU577kuSLNSGzq3Y+okE/t95dHNE18EwzxUlKg5lOMg+w5vhN7BcQR7CtOxN+iLzO9V9hHFvgifo5YFncl8SPEQWnj4+o8Dqsnya4wkUgkopGNt4OL016rx89N31dLnvU3q1MAz2E/uJ1FPY4pm2lHDOy29b1g+fIDL/rcjyZyacqacV1PY37sFq853UbROC7LClJn7F92OsqLoPOpjIr4/b3ra8x35RcNfRJj9llel07nzW3D1aLSg7ALemJoz5a3xmVhwbbn4SHgEXC5/fgLfvAnIVGM8NxXgbI5gRvRQ8mctg91xjRpnv/IM5uMlK9JIorGAPHguR3rosR5dZDT3snOKM7mQHLatBCtDf0sKLrVZOSTe3Ziur4pOvafl4vepDd7fdP/QQ+QLA5lbtanc2Tmxccp78fQm5nVdxOeFdZtqKPJQjNz911yomuUb2y0G0IEXe8B/0nt97WuEIdEuolKd4raeWWahgnaEzXxCH4XB6010fTLOvX1dqbQeGMcLzUJNU6YCoNatFIf+VqqgJdkOIDoWF1ZIzicMSSFQzOtK6EabEkNdoaRPbTWFL98w3uvdXIVE7hX19ThwQojbVIHbbDxI4QYc9nD0OFxG1OnwC9oTTvYtrEhgaZI9pRpGJMaA3fgLe9IF4UQdeO0C6zb/04LFQhFNj5uGLbSdltDMJnRyqA19buzUgdMxjjQh/6CFvkC3hlj82u/rTfgYRpXY8EXQeu7YOZkjG+GnNSyXT7U33gCEZgMLQEu1N/Y/IKP2FfKFjP2TQ/gL6NFL0Hz9W4wXeGNh0AO0eyG542DSFrXZS2DvllhZw20e4aXiE4q2oxcy2dQ+D++wvrpPKvBOWAhIRyeQUvdjIyubr0By/CpcY4MdUGb4g9Ropb+m9qua74tHEnowR/ik/w93u9F6b8yPeqNOkbWnVvnynNbaPP/qfgyVOHI7tX47z17hfzt9JR/BQ/s3V8LzkYFR430BPjMFBT1/nzzOhgW/szYQWeIW70YvN4MipkcjPMZz5BdmxyfETlcTnZi8cW5vR7/w3EZURPgSHcVf8kN69AGeBNV4hEFgRbYSNsuuOHmpCD5YGvdhfa0CD91KsEUA7Sj/7A+cJctEZUL5yfkNgMZsLxFt7CC6+qLBmlGf7gvrMMouH5NlXHywUNLJ6WdRte9PbgvXWUbhlvD/wHPLfzHoZ4b5fbBdNGprI+0nH7hPV5s6o6q8m0hDmIXS9+J3laZTwyPYy8D/9FGmTCubgOG0ZSQz+bLq3nfr6H01vPlcj4LFV6SSCQSiUQikUgkEj/8AWJ4m338uIc8AAAAAElFTkSuQmCC;" vertex="1" parent="B9TV2Sp_-ZcOLSLa0VS--86">
          <mxGeometry x="930.4333333333333" y="41.75" width="57.079166666666666" height="57.079166666666666" as="geometry" />
        </mxCell>
        <mxCell id="B9TV2Sp_-ZcOLSLa0VS--70" value="" style="shape=image;verticalLabelPosition=bottom;labelBackgroundColor=#ffffff;verticalAlign=top;aspect=fixed;imageAspect=0;image=data:image/png,iVBORw0KGgoAAAANSUhEUgAAAPEAAADRCAMAAAAquaQNAAAAY1BMVEV0dHT8/Pz+/v7////t7e3s7Oz19fXz8/P5+fn09PTw8PBsbGxwcHBubm5qamp5eXnc3Nzk5OSNjY3Hx8eUlJSBgYGmpqaHh4fV1dWdnZ28vLzGxsa2traZmZmqqqrf399hYWHwxnLYAAAQoUlEQVR4nO1d6dakKhJUcEW09n2b93/KAdwQQSXBr2rOdP64J/qe7tIQyAySJQOMEMJJxE2FOUdEwFQLCYepFuYqFD+bqDDmMOMQKTBWIA4FDBWYqZD/owHkPxvjDkaB+N9J3DPuYR4vYawlH6cdt7hnHPc0ZShzQ0MYTsCQw0yFyAgbaisxjv4x/hZjPGaMuSUxNwFzjiIBUwUSFRIFpiqMOMx7mAgYKzBTINLCUMBQgZkKkRb2LKMgEZZxc4GZAj397AowUL/97Fee/eD6r6z94PK31/Yw926Vq90q6MfXOCjMDSr9SJodVL2/iLWuI3JxHUTrOiSW/9eMx45TgRaMTXJAohnNMZYiRQ9JPGAcjyTAMsZRIhpDwEyB4QSsaU5ANIBsHJOUmRhOGSGkhw1N1Ms8GdZtjBRYNyzq27iHeQ8FNSyxHEWnRPEdIzei+o6RG4m0boQx3V2v2/v9dnsdNydhx9vxeH4erjv+tzltaHSa8JAjZ7m6yiQkY0+93l+XoGBWlpRZUBuHtCyLqqKn1/txjQl/37UVyDqMG5im0fZx3gdVUbYsTcaoF/R0e2xZ00X/m4yZ7Z7HzTzXAe+iovvnNUpJtJquVsexF5UZkSw7nIPKim3HuiyC432LLMaxhcqMg5x7z1p/pQrMgDBE8X1PCwhbifXluWPqsNaI/GfzHiYqzOegRK1VmTx2NN+TQaSFoQpDBWa8dUl22Nt1ZYOVxem94+3cdisxZBSYqrAJDzpYh2a/movxPbwqp9Ydkq72B9YUP6syuas6+aMrjBbBk2RkHcZLVWYPB5kmxvdMS690ayur44H57l5lxhJMR3CWMeGWoJCZgFm4BGYqRHh3rPw2b2+0uDzqd0Qpf1iqhbmARIGJAkP76KRXmdf9anyFFadDRCxVpiE6eVAgeM327TlvHin5icxeiuM/4Cs4nw5p+H3GJH57ds9TnPcxn2l8M5dJ0vsq/tlktHhmriqTyy9S6y8+XSeZDcSfS/GHfLmVwaHWnmHeac9QkJBgYoaZRTzGoQJJ9ocduremaxvicRT38TjWhWYHzZVeN3/ZoXujwYOr7b9WmSS6VV/hy606sonp+ipz0KvJ9vSdBq6NBtcFvVpLvlGZcyJyANkf0P2vPZZq1Tvh2jIXb16rzB4mKpRYglRmFB+/TZg57Uv0ZyqTbDdfcNEjo+UV4z/J7KWH7zdwbdUTj+TXCiozeX7PR6tWHOttHuuqzNuvtDC38vIhtuNY66uNaYCUXHwEJdqYh1/a7PDAVxMFjn318njMZcfn5PaWfM2FfbL9fn97v9l/Wcd0zXsWW2yT9bFTmeQTOLwdY7t5PQ+fKKw3fog+x5ekzhen5DajvJbKxB8HugV9PXZ8Vsc/XWf8V7mbuL43cNLVI3NVmRhpIMYxmG8R3K6ZmMvrjf04+sBJV890Zu4Ux32vXrz0EkIJ0+L0YMLfxLZrbZwdLkDO1T2bXnqRV2GWRicC7dLF/hDO0e1a+nqBBfvq4V1lki2Mb3k6zDavZIwzbE5WXbFflZnAWpjSZ4YX0605h09QnC62yKvKJKA4XJ52Fu3bGMI7kMqpPmQZ42Xj+AL67O/QsoGbZs7OICW7NQvOgcrkvKd3N5H8Bfno9GDfwG0zPwBfmJ54OO13NyGVWrO7aUqBNDB9Az453WxBDdw08xXyyD3GXjRX+gBEDLqJHQgzyh9A1qF4e2FMtoAu7UqYUd7ZPzWoDksY89E8udt4A3i0M2HesQFfutoJdzvYMYhwv9uYYbGjPG8EmgIFCo8QJ7JzJgwcyyfSk0i0cC46pU/AY4urB8KMMuDZ9DYTneYUCLkCvFbx9EKYBSlA/6ru2ElzQQYx3RtnhbaUif3TgyrGGKyro/QM8dORJ8KwoUwvM4ynxjGB+I7i7qdP15RvgKj8nN5f3UQqEZ3qeCxCUh2PIX36EnprYtavI/s3YI4zaaJTR02CUwoEvwF92pOfbg0/Ae9wGiUwl2kukJ9m0cEn4RAl9u/ABxaM8QnwsHLnsU9zAzVyyWf11iqTQB5Fj36bmDVyDnEmN0lldtSacdwc6RtZFoGSAH5HMTdQI1dXE6/EHJ3OEMYX33xZI8eQhMiJRJYqE8eQNGrpMxa3hveAb1/ciaXmgkha7jE8+y3BGLZCH0d2unoLaWK6X6GJQ5SCPv6TTLZx1DOuISh5WT7WYBzC+luxE3zqTQQSyyDWRSd8AC2GlPEKnZoxvkNSqeUz1UcnrQLBFwjh4LJKEzNvDVqYobvlmgs2igN6XolxCFF/vJGXM36BFjXLwzqMQXNGbvFilbmDLWkW6wxj6EDm7lqrMkWqL+fWwgwkt4Jgk63EGG1hO6o2IU/LytSYBU0QFlKsSW4BmzhYJRoLxilsS1V17VVmy1KnQECTpmA9x8UYZ6AXCugLL1GZsHlxwIfNWoxDYLTkec0FjAl0o2mxlqtmjIGepXwaGCPWsPzsoYA5SNNxxr7THxLjN/CdNuKEMIkklmOVmUF3khWf9Rg/gLtBi0c2qzLDB3Rv7ZptDAvI3Hdls5oLQebf9a+vFY6By4zCSjLHOALlPlZnDJQgwp2qjJVxTKD950cZ85CsVZndPkxQUqm28hcZB5R0W0xrlkGX6okjocTgG53L5BcZFwd+QxI2KhBgFk0Y/UnG9JxOai7oTPR3GQcboq4fy4wxhmzsaRn/5DgOiq3Sq8UvJuKsCJukfBzOMq2U1xOM4RGEaeuEU+tYDqMTdKIobE2V6cBYxCejykyhswjB+AdVpqCMsVlzEYdh/IuzRWHVzsyYODiIlZbZGsZOfe+AjSrTQWIyo+/VGCNgWqZ9r8E4Fr/Y+GrwxLv+Ze/7AzrCmdNhyVM68NXuS6j9L6/ludDO6TxsuYtMKhOYMmyNrrF6zM1F+wZ8q0ZkUpmR21nq1QKy22hjLpVoVSabO4EzDe0vrzSQETB52xh9E7lXSzNH5OSq/e9e6wjnTq/FXGomz48lv00cJk7CTuswdplHCNuYVGa6d/vhtRYXQTu6ZKOZXnPh1EVjCsb+968Jxm7DmCc0iZ7xzvUmg3XW2hBxfa/mSONYZUIONg1t43NvdWsYvGbQWnEg0jiWVmRc0gG1VWtEZJdMVG2l2H3crjv1sZm4aTnx0yssqCKH9GpjbC6h1VwEupwl2cl/t3aUmILxbT3GhcuBVANjt+mNYPzCY5UJ3UKu/rZ3b41iD3fhnOR9IP0umMzZQ3DzncJ1lh/cLqG010faz+WDceF7M6pT+qO1C9GqTC+Mqee9mc6aun4rg8r00qs9+y7ghknFqjUZ+50yOuZ7WisMuUz3MMDN64knp0R1b5XkraTMXuqlA3ltZC+hiVklolOmKpDUz/f0uRoDOjmpsaqJxysx9tfI7vPExlZmzM9k+GHsaRSzNxqozO60lzfGvhYnfI1ioTKxUm+RW+glOnHzdVeEtxe6SKcYZZXplgeXzcukEXQFit5MKtMxXS2Zj7sEUOaaaOyMvlK95vLHOKDuEQpD7qkwvM3ZwNhxEWbwjCP0bq6OsMcblOlzxLjehOyRsfOs0eFyzrGVjyZ7W6vM3m8TnzfLu92DgkLQUVGDlXfpXLm8mgrePa8zunfx177kZW0sWhrWj705R/EYh0yue1J+YOXHxNjPdLE1eG4A7/xWbqA7vcqMvcnYxjbArakoc7wle/QiZKAyeX6vKcrtI20oGT3Crq3yGInb95BYyiozOnguAwIbyl6jJLfy2d+zN7yjPPKSN5QNMqVAiVcHGohNe4ZdipHPqN+YfVT23afFxkxDLjMmrtsiRmZ/Xwbw0oDJl8iG9Rb5H5rLYb3lBHqz3pDrO2AE/EKHwb23g3t9fPuMwHrbAAJdoDRp9EaMd5TDLvOZNkvn5VltcSvbK350Z2Gw76dZr6961n3ciu0UY2+Zpd7slt4glxnOGCVTt0d62CagmtVGPuR1xiqMvtJxvcWu6ELy8e+67BgDb4WYsPKOlKreUjxm0HunsovIKzCuYoza+zIRGlXC8bTaJpndhifoPRgTtuG3VhtP/0TgiyKMZnnSzeE0sN5YrDCeMRe92vNcnF8Nb0M4xL7LGoqMz1S9xcTvN67OllNkhPaev3nWUjPVW/TZrWnxtM4JoMwrZS4x4+lKOKDbKfUPK/YfQJ4ehT4r7ooj5tO33GSeZoyM7xWDUnvIZ1XlQlwnOM3Yx+oTLYPzDsaXGw4PnjjTc18RyHRHeeLurctif0ic1p0QRuB6XgMrtgvqLbrOJorgGdsUsTJxxttb4NzQm3RJvUXYRYq18Zpsbs3bG8bk4djQ5ZMsqeqNwXs/aXW5Zp74cmMNvXMpSxiUn2jJ7ZHQlfPaO3vebIxweL1R6M1N+3SScVdrAHbal/FFqxz+wTh+bkAjmp+BGfdqPnEk9cyR34BD+N0+kCIOJ2D0XUY6OZwAnXuTyfUWibkSTvSxbeTidICVZFvOGV/3tiVl+QUCC+stpnbTiTK4+/RXBmNe7GXJOcRLb+y2qiRBxfHetflyQ3h3s+jb5bPbcDt/R3m+OBVCq1v8N3ytOVNxxd7CSjiLD/QV++3f8bXjXL4FH5PKFG9dq0wBlyUGys1hlYA0w3m7X9IeNOupIQkaqnpHC1agaPn+A4elMTbNmC8nW9wt68LM32lUHAFFUX1xzp5zbnsTWjKeq7JIg8N6imPe2HDeT/bCanCZj+6OcoS6O8qRKOWdTgqv4pZ+kS83Jv8nqgbz0mVdvUU+YFuWTGXmeZq3UozhtpR3nkycUaDB9WsdujNGw5wDLLYhL/Cd532t73y+qrdxJbfYR19u4Npw+DY4bXrktSTsq3obNoPyM+rfJlsbwld9z65LSYhNEFbVB7ULjbzK748QDvl+Rl0J3eLep2ytGGeafUbl3r0GrE/DybgEOL2E0UQbm8cxzsdrq+XLthL72oayl9oViygUfAzjmNM2VfXGqrwuzj/UoxtD+DZs5fKZiqreuN+4hSWW01W98bCe9y8SHi3O0QuJ4DWuh0Xq2WzkBwmLxTnpLenHhfFg4Y3fMfFtcnrDksMp7qljVe+uthU9rXeTr6vhLe2ahURKVe+OWnMWpqmu2Ja+HsGw8wvrXeTrbm05bHrKZ/jMVvWOCaq38Hu/9sKrtaeFyq2U+ABV9Y4igiPeyO6H1Na1+haNor410aWqN2eMeWaz9HWKei3j12gU51ylCWKM8L1ar5KRL0Ofks2YxjTtVGYHz/8RTSx+rXmADqJvQnxkkXYweA0qU/LbfUhSAxXhp0hQrVaFDK1hWH9PDWyfqYX9dVESbLtVB2u/qUJihlkfkiaj07QCGcBQhWHfg/RQ38X60RNrB1LLuB5THEYdJApMdXBGgfws4+gfY1+MZ1SmBEMVhgocOQzVd4zciKQM9PpHhUSBqQrnx/GEHvsuzBzg1BNmVab7B897KPWlZd1q1MP03WpZD1usMh0GVaQdVLECbVzHrBfRuw6J5T/GJsZaKPyiBFMV2jNWoAVjrKdprLfIrYf1DCTvYWqGqYBEgbkKxRMSLczMMNRCcR11FM5BpMCpqt5ObuTXo1Pf235NgfxTmf8YQxlbjONfVJmjIb1UZabDooT5HExUmM/B1AyzP4JtvcX6K4vOpMA2zyW+sg6SWMRjASMRhBUY1V2sg01fUmCmQKSFzUBSYKZCpIW4g9F/AXWsstamO868AAAAAElFTkSuQmCC;" vertex="1" parent="B9TV2Sp_-ZcOLSLa0VS--86">
          <mxGeometry x="746.75" y="40" width="67.55083333333333" height="58.58125" as="geometry" />
        </mxCell>
        <mxCell id="B9TV2Sp_-ZcOLSLa0VS--71" value="" style="rounded=1;whiteSpace=wrap;html=1;strokeWidth=2;fillWeight=4;hachureGap=8;hachureAngle=45;sketch=1;labelBackgroundColor=#ffffff;arcSize=0;fontColor=#FFFF33;fillColor=#E6E6E6;" vertex="1" parent="B9TV2Sp_-ZcOLSLa0VS--86">
          <mxGeometry y="640" width="1030" height="180" as="geometry" />
        </mxCell>
        <mxCell id="B9TV2Sp_-ZcOLSLa0VS--72" value="" style="rounded=1;whiteSpace=wrap;html=1;" vertex="1" parent="B9TV2Sp_-ZcOLSLa0VS--86">
          <mxGeometry x="789.1345" y="670" width="189.3655" height="110" as="geometry" />
        </mxCell>
        <mxCell id="B9TV2Sp_-ZcOLSLa0VS--73" value="&lt;h1&gt;Contactos&lt;/h1&gt;&lt;p&gt;Lorem ipsum dolor sit amet, consectetur adipisicing elit, sed do eiusmod tempor incididunt ut labore et dolore magna aliqua.&lt;/p&gt;" style="text;html=1;strokeColor=none;fillColor=none;spacing=5;spacingTop=-20;whiteSpace=wrap;overflow=hidden;rounded=0;" vertex="1" parent="B9TV2Sp_-ZcOLSLa0VS--86">
          <mxGeometry x="793.0999999999999" y="670" width="163.08333333333331" height="120" as="geometry" />
        </mxCell>
        <mxCell id="B9TV2Sp_-ZcOLSLa0VS--74" value="" style="rounded=1;whiteSpace=wrap;html=1;" vertex="1" parent="B9TV2Sp_-ZcOLSLa0VS--86">
          <mxGeometry x="51.5" y="670" width="180.25" height="110" as="geometry" />
        </mxCell>
        <mxCell id="B9TV2Sp_-ZcOLSLa0VS--75" value="" style="rounded=1;whiteSpace=wrap;html=1;" vertex="1" parent="B9TV2Sp_-ZcOLSLa0VS--86">
          <mxGeometry x="378.20741666666663" y="710" width="282.70925" height="30" as="geometry" />
        </mxCell>
        <mxCell id="B9TV2Sp_-ZcOLSLa0VS--76" value="NEWSLETTER" style="text;html=1;strokeColor=none;fillColor=none;align=center;verticalAlign=middle;whiteSpace=wrap;rounded=0;" vertex="1" parent="B9TV2Sp_-ZcOLSLa0VS--86">
          <mxGeometry x="497.8333333333333" y="680" width="34.33333333333333" height="20" as="geometry" />
        </mxCell>
        <mxCell id="B9TV2Sp_-ZcOLSLa0VS--77" value="&lt;h1&gt;BierClub&lt;/h1&gt;&lt;p&gt;Lorem ipsum dolor sit amet, consectetur adipisicing elit, sed do eiusmod tempor incididunt ut labore et dolore magna aliqua.&lt;/p&gt;" style="text;html=1;strokeColor=none;fillColor=none;spacing=5;spacingTop=-20;whiteSpace=wrap;overflow=hidden;rounded=0;" vertex="1" parent="B9TV2Sp_-ZcOLSLa0VS--86">
          <mxGeometry x="63.516666666666666" y="670" width="163.08333333333331" height="120" as="geometry" />
        </mxCell>
        <mxCell id="B9TV2Sp_-ZcOLSLa0VS--83" value="" style="rounded=1;whiteSpace=wrap;html=1;strokeWidth=2;fillWeight=4;hachureGap=8;hachureAngle=45;sketch=1;labelBackgroundColor=#ffffff;fillColor=#FF0000;" vertex="1" parent="B9TV2Sp_-ZcOLSLa0VS--86">
          <mxGeometry x="20" y="241.56" width="176.88" height="170" as="geometry" />
        </mxCell>
        <mxCell id="B9TV2Sp_-ZcOLSLa0VS--84" value="" style="rounded=1;whiteSpace=wrap;html=1;strokeWidth=2;fillWeight=4;hachureGap=8;hachureAngle=45;sketch=1;labelBackgroundColor=#ffffff;fillColor=#FF0000;" vertex="1" parent="B9TV2Sp_-ZcOLSLa0VS--86">
          <mxGeometry x="209.11" y="243.13" width="185.72" height="170" as="geometry" />
        </mxCell>
        <mxCell id="B9TV2Sp_-ZcOLSLa0VS--85" value="" style="rounded=1;whiteSpace=wrap;html=1;strokeWidth=2;fillWeight=4;hachureGap=8;hachureAngle=45;sketch=1;labelBackgroundColor=#ffffff;fillColor=#FF0000;" vertex="1" parent="B9TV2Sp_-ZcOLSLa0VS--86">
          <mxGeometry x="410" y="241.56" width="184.55" height="170" as="geometry" />
        </mxCell>
        <mxCell id="B9TV2Sp_-ZcOLSLa0VS--87" value="" style="rounded=1;whiteSpace=wrap;html=1;strokeWidth=2;fillWeight=4;hachureGap=8;hachureAngle=45;sketch=1;labelBackgroundColor=#ffffff;fillColor=#FF0000;" vertex="1" parent="B9TV2Sp_-ZcOLSLa0VS--86">
          <mxGeometry x="614" y="470" width="183.38" height="170" as="geometry" />
        </mxCell>
        <mxCell id="B9TV2Sp_-ZcOLSLa0VS--88" value="" style="rounded=1;whiteSpace=wrap;html=1;strokeWidth=2;fillWeight=4;hachureGap=8;hachureAngle=45;sketch=1;labelBackgroundColor=#ffffff;fillColor=#FF0000;" vertex="1" parent="B9TV2Sp_-ZcOLSLa0VS--86">
          <mxGeometry x="817" y="468.43" width="187" height="170" as="geometry" />
        </mxCell>
        <mxCell id="B9TV2Sp_-ZcOLSLa0VS--89" value="" style="rounded=1;whiteSpace=wrap;html=1;strokeWidth=2;fillWeight=4;hachureGap=8;hachureAngle=45;sketch=1;labelBackgroundColor=#ffffff;fillColor=#FF0000;" vertex="1" parent="B9TV2Sp_-ZcOLSLa0VS--86">
          <mxGeometry x="20" y="468.43" width="176.88" height="170" as="geometry" />
        </mxCell>
        <mxCell id="B9TV2Sp_-ZcOLSLa0VS--90" value="" style="rounded=1;whiteSpace=wrap;html=1;strokeWidth=2;fillWeight=4;hachureGap=8;hachureAngle=45;sketch=1;labelBackgroundColor=#ffffff;fillColor=#FF0000;" vertex="1" parent="B9TV2Sp_-ZcOLSLa0VS--86">
          <mxGeometry x="209.11" y="470" width="185.72" height="170" as="geometry" />
        </mxCell>
        <mxCell id="B9TV2Sp_-ZcOLSLa0VS--91" value="" style="rounded=1;whiteSpace=wrap;html=1;strokeWidth=2;fillWeight=4;hachureGap=8;hachureAngle=45;sketch=1;labelBackgroundColor=#ffffff;fillColor=#FF0000;" vertex="1" parent="B9TV2Sp_-ZcOLSLa0VS--86">
          <mxGeometry x="410" y="468.43" width="184.55" height="170" as="geometry" />
        </mxCell>
      </root>
    </mxGraphModel>
  </diagram>
  <diagram id="ns_dMSV5i1QM9SWYl9xY" name="Page-3">
    <mxGraphModel dx="2858" dy="1019" grid="1" gridSize="10" guides="1" tooltips="1" connect="1" arrows="1" fold="1" page="1" pageScale="1" pageWidth="827" pageHeight="1169" math="0" shadow="0">
      <root>
        <mxCell id="ZGFLP-5x8rP5CcCoOaNy-0" />
        <mxCell id="ZGFLP-5x8rP5CcCoOaNy-1" parent="ZGFLP-5x8rP5CcCoOaNy-0" />
        <mxCell id="BGO8GokkITSjxSBt_-nP-0" value="" style="rounded=0;whiteSpace=wrap;html=1;direction=west;" vertex="1" parent="ZGFLP-5x8rP5CcCoOaNy-1">
          <mxGeometry x="-670" y="20" width="1030" height="1030" as="geometry" />
        </mxCell>
        <mxCell id="BGO8GokkITSjxSBt_-nP-3" value="" style="line;strokeWidth=2;html=1;" vertex="1" parent="ZGFLP-5x8rP5CcCoOaNy-1">
          <mxGeometry x="-670" y="150" width="1030" height="10" as="geometry" />
        </mxCell>
        <mxCell id="BGO8GokkITSjxSBt_-nP-4" value="Img Carrito" style="text;html=1;strokeColor=none;fillColor=none;align=center;verticalAlign=middle;whiteSpace=wrap;rounded=0;" vertex="1" parent="ZGFLP-5x8rP5CcCoOaNy-1">
          <mxGeometry x="274.16666666666663" y="85" width="34.33333333333333" height="20" as="geometry" />
        </mxCell>
        <mxCell id="BGO8GokkITSjxSBt_-nP-5" value="" style="rounded=0;whiteSpace=wrap;html=1;fontSize=22;" vertex="1" parent="ZGFLP-5x8rP5CcCoOaNy-1">
          <mxGeometry x="-670" y="150" width="1030" height="300" as="geometry" />
        </mxCell>
        <mxCell id="BGO8GokkITSjxSBt_-nP-6" value="" style="rounded=1;whiteSpace=wrap;html=1;fontSize=22;" vertex="1" parent="ZGFLP-5x8rP5CcCoOaNy-1">
          <mxGeometry x="342.83333333333326" y="460" width="9.441666666666666" height="60" as="geometry" />
        </mxCell>
        <mxCell id="BGO8GokkITSjxSBt_-nP-8" value="" style="rounded=1;whiteSpace=wrap;html=1;strokeWidth=2;fillWeight=4;hachureGap=8;hachureAngle=45;fillColor=#1ba1e2;sketch=1;labelBackgroundColor=#ffffff;arcSize=0;" vertex="1" parent="ZGFLP-5x8rP5CcCoOaNy-1">
          <mxGeometry x="-670" y="150" width="1030" height="300" as="geometry" />
        </mxCell>
        <mxCell id="BGO8GokkITSjxSBt_-nP-9" value="" style="group" vertex="1" connectable="0" parent="ZGFLP-5x8rP5CcCoOaNy-1">
          <mxGeometry x="-378.1666666666667" y="160" width="523.5833333333333" height="40" as="geometry" />
        </mxCell>
        <mxCell id="BGO8GokkITSjxSBt_-nP-10" value="" style="rounded=1;whiteSpace=wrap;html=1;arcSize=50;" vertex="1" parent="BGO8GokkITSjxSBt_-nP-9">
          <mxGeometry x="-51.49999999999999" width="523.5833333333333" height="40" as="geometry" />
        </mxCell>
        <mxCell id="BGO8GokkITSjxSBt_-nP-11" value="Que estas buscando?" style="text;html=1;strokeColor=none;fillColor=none;align=center;verticalAlign=middle;whiteSpace=wrap;rounded=0;" vertex="1" parent="BGO8GokkITSjxSBt_-nP-9">
          <mxGeometry x="122.74357407407399" y="10" width="209.43333333333325" height="20" as="geometry" />
        </mxCell>
        <mxCell id="BGO8GokkITSjxSBt_-nP-12" value="img" style="text;html=1;strokeColor=none;fillColor=none;align=center;verticalAlign=middle;whiteSpace=wrap;rounded=0;fontSize=22;" vertex="1" parent="ZGFLP-5x8rP5CcCoOaNy-1">
          <mxGeometry x="-176.45833333333337" y="290" width="34.33333333333333" height="20" as="geometry" />
        </mxCell>
        <mxCell id="BGO8GokkITSjxSBt_-nP-13" value="" style="ellipse;whiteSpace=wrap;html=1;fontSize=22;" vertex="1" parent="ZGFLP-5x8rP5CcCoOaNy-1">
          <mxGeometry x="-180.75000000000006" y="430" width="8.583333333333332" height="10" as="geometry" />
        </mxCell>
        <mxCell id="BGO8GokkITSjxSBt_-nP-14" value="" style="ellipse;whiteSpace=wrap;html=1;fontSize=22;" vertex="1" parent="ZGFLP-5x8rP5CcCoOaNy-1">
          <mxGeometry x="-163.58333333333337" y="430" width="8.583333333333332" height="10" as="geometry" />
        </mxCell>
        <mxCell id="BGO8GokkITSjxSBt_-nP-15" value="" style="ellipse;whiteSpace=wrap;html=1;fontSize=22;" vertex="1" parent="ZGFLP-5x8rP5CcCoOaNy-1">
          <mxGeometry x="-146.14199999999994" y="430" width="8.583333333333332" height="10" as="geometry" />
        </mxCell>
        <mxCell id="BGO8GokkITSjxSBt_-nP-16" value="" style="triangle;whiteSpace=wrap;html=1;fontSize=22;rotation=-180;" vertex="1" parent="ZGFLP-5x8rP5CcCoOaNy-1">
          <mxGeometry x="-635.6666666666666" y="285" width="25.75" height="30" as="geometry" />
        </mxCell>
        <mxCell id="BGO8GokkITSjxSBt_-nP-17" value="" style="triangle;whiteSpace=wrap;html=1;fontSize=22;" vertex="1" parent="ZGFLP-5x8rP5CcCoOaNy-1">
          <mxGeometry x="294.76666666666665" y="290" width="25.75" height="30" as="geometry" />
        </mxCell>
        <mxCell id="BGO8GokkITSjxSBt_-nP-18" value="" style="rounded=1;whiteSpace=wrap;html=1;strokeWidth=2;fillWeight=4;hachureGap=8;hachureAngle=45;sketch=1;labelBackgroundColor=#ffffff;arcSize=0;fontColor=#FFFF33;fillColor=#E6E6E6;" vertex="1" parent="ZGFLP-5x8rP5CcCoOaNy-1">
          <mxGeometry x="-670" y="20" width="1030" height="127.5" as="geometry" />
        </mxCell>
        <mxCell id="BGO8GokkITSjxSBt_-nP-19" value="Productos" style="text;html=1;strokeColor=none;fillColor=none;align=center;verticalAlign=middle;whiteSpace=wrap;rounded=0;" vertex="1" parent="ZGFLP-5x8rP5CcCoOaNy-1">
          <mxGeometry x="-429.6666666666667" y="87.5" width="34.33333333333333" height="20" as="geometry" />
        </mxCell>
        <mxCell id="BGO8GokkITSjxSBt_-nP-20" value="Promociones" style="text;html=1;strokeColor=none;fillColor=none;align=center;verticalAlign=middle;whiteSpace=wrap;rounded=0;" vertex="1" parent="ZGFLP-5x8rP5CcCoOaNy-1">
          <mxGeometry x="-326.6666666666667" y="87.5" width="34.33333333333333" height="20" as="geometry" />
        </mxCell>
        <mxCell id="BGO8GokkITSjxSBt_-nP-21" value="Envios" style="text;html=1;strokeColor=none;fillColor=none;align=center;verticalAlign=middle;whiteSpace=wrap;rounded=0;" vertex="1" parent="ZGFLP-5x8rP5CcCoOaNy-1">
          <mxGeometry x="-226.6107500000001" y="87.5" width="34.33333333333333" height="20" as="geometry" />
        </mxCell>
        <mxCell id="BGO8GokkITSjxSBt_-nP-22" value="Quienes somos" style="text;html=1;strokeColor=none;fillColor=none;align=center;verticalAlign=middle;whiteSpace=wrap;rounded=0;" vertex="1" parent="ZGFLP-5x8rP5CcCoOaNy-1">
          <mxGeometry x="-146.14199999999994" y="90" width="34.33333333333333" height="20" as="geometry" />
        </mxCell>
        <mxCell id="BGO8GokkITSjxSBt_-nP-23" value="" style="html=1;shadow=0;dashed=0;align=center;verticalAlign=middle;shape=mxgraph.arrows2.arrow;dy=0.6;dx=40;direction=north;notch=0;rotation=-179;" vertex="1" parent="ZGFLP-5x8rP5CcCoOaNy-1">
          <mxGeometry x="-429.39200000000005" y="110" width="17.166666666666664" height="20" as="geometry" />
        </mxCell>
        <mxCell id="BGO8GokkITSjxSBt_-nP-24" value="" style="shape=image;verticalLabelPosition=bottom;labelBackgroundColor=#ffffff;verticalAlign=top;aspect=fixed;imageAspect=0;image=data:image/png,iVBORw0KGgoAAAANSUhEUgAAASAAAACvCAMAAABqzPMLAAAA8FBMVEX+/v7t7e3////90xzs7Oz4+PhSFw/39/fz8/Pw8PD09PT7+/tSFw5CAABEAABJAABLAAA+AABQFA//1xxQEghODgD/2iRNCABHAApOEA5MDA1MBQBEAAf/1yj/1Cv/+vmnkIu0npvp3dvz6ef/1Cr4yy3uwC3CrqtjNjCGZWF3VE/MubfXycZoQDu9jiZdMCrOoCmsfiLarCvFlyecgn6gcR+Qc2/Fs7Hg09LUx8VxTEeTZBt0QhJ0UEy2iCNlMAqCURdVIBnluDVdJglWGwaJWReaah1YJyGZfHqLbWhrNw/JnBg1AAB6Shns49+EVBhnkIagAAAchElEQVR4nO1dC1vaTNNOUiHnhEMCKGqEVBGB2gNVtPZgT2rfpz7//9+8OzMbSNjlpEFpr2e/6/rezmOLw52dwz0zu1E0hS1NV2FtKSgUtlCw4UeaLREK+I8UFFSdPoEEiwQ1LZgoGCQYKJgkWPT30sLWhumjKqSDvjVRSEkUQsGWCAVlotBWWqGttEJbRlohUyIYW2mFttIAbYo+6wRI3TCAHqTPfwA9I0B/iYlpuPQtXCQVSLBRsCVCAQWFBJ0+gQSLBBUFgwQTBVMiGCioJFj0CRumj6ro/625S1H/ziefmz6K+nc617z0USQALeHM1A1zruvTRwbQfzvoP4BWAWgtTlFLO0VFdIpK2ilqWSetmqZh2BujzzgPIqT5BxG4/INEIfH2HGn+xejJ0xdDYfzFUgI9bDMtjL8Y/0n7onVwMGydjwwj+WLPp8+GZdKG0TsLXc/3S77vude3I/jefy1ZXVUhZluta7cUFPlyglJ5cMEQ+lsBWtG56sbFsTdGh6+w/PFe+1vJ6ooKRQduyLeOEwSBg39winW3xzfAMwGU8fbPRRHg9565Dm0a3w1uTm9C1ye8gvIBSwSfVh9y0igkZNXC9VSC8KNCdOchHHX3sjWKIy2K+62BRxC5Q/up9ZkIm0FWVWPooVt2T0bMcOxCoWDbSnQx8JiRFR2388T6pHbiZnAx49wtOmBd5wqAkyw7ajG37TCERtq8Yvtfz8XM+2vAIbxuawwWPQWRdgGBzQmPI7ZPWIptmpYMoKflYk9fKjWGPsMncNpKYXppfZcBVPRaLMPun3c6vVFMJvaMAD35DlLvQ7aBHPdCmdo/iFDHhVB2c3vadD223GBw0NaecAflFA4fQQ4Vs+UzDEpnmrB/EKFuHRAaZ9gBywMGPd1cmz5TZJUWdTJ52lgggYMrEZInj0tXUpvvIZ1MMzqGL+/HthQgu112ik4mv3ZCd4A0bS36LOysLpHaa8JWXJr7bAmmYWGIL9ZPYtEF0RZqFh2HUuwEKQZRCwBahz6bRjWM8zJ962Z4ITUyu+cBNqHvlctl1ysFCJPjdie9+bz0yeygDQHIbIdj71IeRrbopguR5xRLLMO+aMfxqDe85pzN/xgpfwdZNQ3DMGXagULGJfjgYgUNxxu0JZtI6XrubZsZFCxFUy4GLiRHjtfVDEiODO5M10RWOUDcwSvog7iDB8GWCGjzk5ScFOLRkBTi0RADRrvXOej02vgtxtFQAYEpZB2gAwq+Nbhr6WiCr1Y6Z/fp/6poHSSyDKHu5enpoDs8v9eoorhIH8QkUUEQkmjIAUKB+0XOzDKCvkAoLCEocWtQ9jzf88rHB+CEreQX6fjXCn10QI33hx92aROV70RfbU+DprVv6uCJ6vUwCMJ6iX16617RV1HOWiQ8BVk146FHRQv2bQLfHcbmFDmMrqHws3O1X629C3bwb/o3I3lCNF4I/E0IH+ok8Z8lR2fxIn3Sqc8GdFY1ZXTsZ9IX/7RPmdc4PHfhL1TCo+qLF9WjqwZ9V/cgkqdEqaW0/enqY8mHyP8HcTGt3awn1WX+oEPgVBOFtE4Z8Nl9x/BhCO2/8bivPrmXp0RpKwMKEoTNUqkZ8o8P3JNY+3O4mBbX0bqCkudf+x5/4B77DolCZhtoVrHxYe8Frdrb7w0wx2LT6Ym+empFl54XXHaHw7uP41J/6ab9x+wgTRvg/imFw34cx/1hUMJcuFS8SPpZ8XHIwNj+fFjlAL2oHv7LfLUDm+F2kZnZo+FFTN/BGA2LPiSPTt1p2zkDlITD3J00EQivG2sse2GBKL4jThW4QwrC1hk6IP/rGB+29l7525QGDhb5aptKj/hHLT7w8XmEN7G6wEkvJM9ZJ03r0WSVCxYJpmr1MH57t8rkS3S8OhqQx747e7o9NLDdT7UX6VX7+rmBjIv5K2Whr56gpbUHgLdTOtFk+giCwTcfWQYJ1kwhd7JqtrFx0/wYpb4E+w68Mu93NC1ugt/Y+bL3Iruq+z/dCgAZuN0Z9FUOUXSHFWyWaor6CK5j65nJqnHSBP9cz5Yw7GhYDije3EVIMSrfD18Iq/a6vkM+97q/wMyyn45JA/ul2sZzMU4gyr3UDsA8VuuFJfruTUj0iu7bqggQpES7KfoqsNeZCA3gQ/2DzQeo78Jm927p+evIMulLKPGJy2s7DlCMmgQf8NVvXPLV3iBefhPZI/i9QT3SnpisqquRVS1CHhAOyAHZStzv9doKVZxtrZW0mBnFmHZAEzPDlAj8Vfl8eYS0WzAy71zTHkhW1a1ZZNUAYmYsEgok6PMF7Q6TEreNu0YZdV2XkdWbFi/2aKNTyrArpSOZgXEzO/wxpq/m0luo7bFUot5VppSzDEGwFgk6CWsgq0YL43e5g09eaZWbOIgQjIs9SjRAV+2+no0PQ2jvVUhV1n9GS4Z7vaBAhd/xWC60uWTVHCGr8O8QDe0A8iHyOqHXwcxG6ftY4/g5wwGNzew1cl23tbyNKR2IDu6FucFUIx7Agw9vkCooF2XOV/H/uVDsseNrKAhuf96fj8+L2nuI9s3uKqG+DSHA76wVoEftINW4pceOZkFYFAPP8+pU8Ljpa0q3xAxnimLI1uF3cELujHaQfOEvLB0YGwuQce6lzCI6KUFKXO/EoxOPF3taLcwBdl8tMLAX1deQDPnDFTYQ+43QYyud5QhQvmTVbmPtp3SC0ZFFdAxnPfgRHyBzfMwUGz9mRvgxQB/Awsr3q2ygggYGjgDlTVZNtjglLaQFWyIU0kJCVtkfTTMiilGMbaiLjjAn9G919vcMFt39sT/a/iahGFNr7xfLFcPLlTYQAuSUbjUlo5yJy0oLCVkliQRLTQk6FySVwIeRVZASioFjCDbli/VBrCI51KIzYGLorj0pxZC4oNLBCny1kJjYUNtMsmr0cMt45DZYvggOyB+Z5NjY6vkBdpF33yxyQGwdwT/3zlcCyI7hAUBxegFAz9JZxTkoRg4ukWJoHXJAHT3x/AyhEe6wnd8vBYcjuqCvkG96Fyu5IBut2uvJAHp+smp1wf8GPlIMmwrOLF9MdjFw7BOqcQgU4+i94LOrX73VAVIOwM+V2w/cQfPIKgGkpX0Q56eikJDVLEAWxe8yGUV0HGIFNOJnI7CZ2iITFCjG/q9PwhZ6GED4BLxoGqCtNECJPoKAAG1NAUQfrBu4JEJBIuiiYBs6j1k0B6XdUj40UhgFhGUxVj8qF6U1jtr78pFoYkdhBdzJSj5IuYTHUj/RbImmY0o6X8iikF8epJxCjyI8Rgek9JBieAfWhA+qcRGLrL+mKUb1dfm3JCt6+Y0B1LxbKcwr+Fwc98BYI1l9mK1qZz4WyTjFqMMUT/PESLkvHV1UpT7tgNhW4a3DqX31ZQcKqNFCVCZLL1DZ1SmPNo1qGLRlEorxseng2Ko50QGrIE5x9920ge1f7cgq0y+qn6Bk5vZWsDEdyq51MrL1AfSQfMGkVnmpSxSD8kW3Z0x0UEYe1jg+iA6oMaPyegSTZeFgtVTaJk3KfW2jdpCBzy24ianeQyXpoZ4KgBTV0m3UxAG5s4j93tU2wrwi2Wh5kL9f5gVQLk6a5jAdt48UI74Bd83yxbSHHEraqOiAgorYG+M/e7cLqXi4Ur0DEwzINkY5kVXsONg6cTYSChKhQJJE0G0bxuFhyxxQkZX8pNfW8cORD+rn0jYqC1VXO5XGLGL2EugqIL1aLoQVl2ZXJ+VAhYSsjvUBsioKFmeuaUgWkdVMoignqwqMQYFKnGJQNuh2jEliBo1WaRuVOSBGPGZVPqpvsT3mf1ylw8q20GmAD8ic4VvnJ4proBoaUQwyBRtK0g6jGFbKl5lJG1V0QEVnd3btvvYTAplTOh0tnIZJb6EW0Fy/ZWzKGDDFb2qj2pxinMapaMhHxYU2avWQJcvbs5tjmAJgHdK7vddolIFZwiKA7BiaAuHA2oxDvYUY4qrj33KKQT2xvjl5YkaPIrwQzPd+s6+/O7c0dPiNTy763fN2pChwEnHGZpr8Z+0OynbeyMyzsyrxQfPJagKQgvFpQjHQAbWsyRMzqAqyfTVd46i92ZX5pWR3/a+K/0MDwsxXe75zenzd9P6RRzXlYgIVzOYzGzPzIKs8ihEzywgUqwoSQU8LyLCcMrVRo9MQ88UIKSB9XNQtObI2avUt0nV5DlQ9+kx/v3r4hQYZwM0F4Ou9jibJjOz2SWJ7jHDANq6fFLimnLlaEsEShSwKj8+DLiCAl6iIaPeBcARONM472MamRqs7Tbeqh99ZEN8RMmuOz/fEIKt7n7xGpThZwaA1jAWAopvbCWxw/oXBGW1EZxVKVA72HnSoV7EcmuW+E19m9l05xdgDLlrxxToH4vOtOaFntcP3pcbOBKPAL3emPbV2Vk5Vr3mDdbQRnVVwiMEpKafclopOcKxOFDLjU6IY0zWO2iewnIa0OM0cz+6b9IarHb77XW/Q2sYgOcXxlU7ZS4FG5Uy/tRFc7JIl9nXeHgaAGFrxZAcZdzMoxluv4jjb32Tt5+rhZ4HfV2uHb9+9ef/+zavfgJCX3ULQcc7UHhUnwFpS+srT59pBUMNLyloKHq4EL8oVMrByL7ZR2R6B71mW5oiHVzsNsQT7ooqr9hayruDaSIcyFhscLz0DQk7odCPIKgychAN6oPaojDQMzwQwp2iOcFJTbKPu/YDgvfOvzMD2vzTmDTbssdzRSQoriQNiqTP1CpIdhE/KjzP89HnIqj4swYllHlZgShDyxJN7HchhdFmHCC+0UauvwAFVmrIBKoZdZQ77YMbp4kM4G1NYrQMT2GE6stkstjrM6jJqJ2Ge+KlEsNJfPC+yamLASHyC3ceY7pSK55ZqUeGsIrRRq1+bFTQ8GT7vd+fQV1i1Dw0HD3RwCqvAWFkxuEl7Jfu+jF7afn6yqt5DUhZcR8neTgZ9b2PKiiRt1EMsY0hzaAxuM5LH8T9H/+WUrs8jhZ+Mmlh5YmMeZmf2asFHXQNAWwr4Q/AJNg+4Ph8FGvSRYoht1L0PjeKMFKjG6P3C0TMosuFD8D72IqWP+IwDaWJ2YOv1kxUBWgtZtUdoVd4d9wnjefoQLyYR26hQKITqvWRAqPrVr0iqIuJfC3fw5HPduz7FW6ucJJef+G1IOI6jvDurGR+0HFnVNTyU4vin/PTJeJ6e5jim/S01BFkEEw2MEQxmPNIeEP347fhPvxo01Bckx+r87BiIcsAIoHNt5kZWJf67IEYxMaQZpm4bOOaSOn2i9YIS11s0FyrxSLfJ/q+dOcPTtXcTbw8HOrZT/AxSiyxAHYzz90oqVmWiWMJPxShmpFHIpbNqjkJEKBVY4hOc/S1uC21UKLIyvib253lyVPHkw9MMkn/SFe3a2190tIwvL9s/sy+IjanPT1Yt9g9G1yU8z1Zy6PIE3dbwPg4pxcCNJemEzWNnLPW+KmejXvXlq++0iRAlt589N4OeEet2z83FLKSkXSy7JpcnYHNK5oipxgHHnEUIXsOJ1Rk5NKP3jWA66lX3sXGGHf+il502t9uQYnjn6wBo1c4q/lnvlOkEBs7TM8qBNY4fQo3jX3RA4axhjlnHf97ubIvZdZUGzf1LamJkAYpBA69lbMYOYp+g3VN0d+puR6PCojipWUOKIXVA6KBnHP+psc01Ofo7Xkc4R13qgj92mlM1tOgfTKUfD1AOThoXc2dDl6J7+QxrHOKkJs1ESScU97DBU5GWP1j4qmx/FuYbXkLJn9lX1PIdJwinKkQRjtwfGM9OVnnzkglG4bzYRISaTTkO+5+3pdweMHClkOLPXrkVyU+w5A+te3sIOWFxqsYYQUXIP9AeGebnktVlE0X8RyAY7RNvHHglbVTcJTu/xAyIs1epgSE+YmyDihtAemsYVKWbBghSSL+1eqK41hOHZtTit2cyRyzUOF5DYNkWJzhZbEMHJCZNhA9EPWEsFhgrDWEbWJGaHjiPbmhg+uHBZx0AMWFEZ8Ekh8GgjVqslCRWlLBXCYkH/+NUhAhPSaUT1EemasDgZngyBZCCE+W3G0BWp86sav0ZmSC2USuyAIbsVTb6QfGL/UT4Rzwcuh320C0o+tanD00lI/ePBuixBbNpgHC0QjKpST5VBkLCXr8IZsQcDWP3kpYRsH4IUmdgFAZA0Zy+ZBAnTvAA9CMLZvlFMRT4hTdCMRULGSywSYhowl4lyePXUJ5cUzgMTyOISIXToDhd7UicNI9ikpKrrP6aKbkmw0L55UGYNcxso0IVcFecpx+Ha4ntMX6xDVYpuKYa+izH65OmcoAcfrJumTzo6c6stvmkphDh4Svt/pTgM5u9Mn4KZTHRKslnOYxHoD4aZTzTYb5MieIjfWu+Jw4nk5qyryQhC2ztf5vFXnlr6IuAz1EJKcaJoU4AEo5NEUBr4WIPPdTL/o/Oqwo2UT2qV4q7UnwoeRSnyxPTqwRCWrl3tYNtgrapzt5BjKyCJp2N2kEaDZOLNgFumOEjoRHU5GIOSDSw1/KpNKy44TlPQ50HENaDvN7jyx05OmkcNZMUm9leqEj9c3KwWeaAjmaQD+6zvKE11kcKEFUU++ZSFcVlyCoMC40jOwqFBYJNQhLmDf2ySTUOyZyCK4vv3MCcnd+CA6oeYiCXHHwhSOuXylgfHtCzACk4ZOa1eU0aNZ09QDUO8+kBKhLyI6tmR07IYVbDfyXFp/q2LC0bEflwZJd74FRRMfDjiT6GbAdhc94J7x/f1VAEgB5INQwccBdp996H3fCtvBOIEazii+yMMwmxdUZ1a37LFNfHkgGkYQ3kejPGgOk34SjethCuGYf/NeOSF3K3kgZi9SuWMsTCEeXjjn9mpfSxbiSJIh86kfbmVwk++QGEVZmicKqgeuT/mNEoxfqiI6sB7WPvviJ6M/JM4XGsLgQI/mO9m0PrOS+yajLK6IgVner7V7LwDgsGfYqNL2KGSDtLUkSksojjjsy0PtYgFE8mRjjdMcxhuiMnsqpgYtZ4I4DxclafHf2MzEHTnR2Sim0NT/8U3ZaeUUH/iHMKGYAoDfI7dlrT1eaDciarKvahGnOvTMrCAPFalkG/OPyG1Q9hKIQPdfjdaX1gjHTq3B1GeWgFpfnpw4r2tPseTTVMylyXuHEi2Q7MXMTRqhcJVZdUP6gsElzDxEZaHwpYmfmpAg4nB0FUeKxvzY1qEEDuwjuBxtsB4lFZOL9KB4CklUds6ifHdTMA4aR2tu2Do6VsV23CGHAaoOVNDAqw0hs8ZpEPzs28A0EfrQPT69nXckRwKJRFto0BaEvFVq9sele6wBHLy2c/YZ+I1Q+iGE7zMhIB4oMcE4B0Gwvj3vlGjAEnZLUeyKeipGv/87b0iiVi93RFeWZxihG2LVEfrNJlxl/Q6orefR5nNeiU2viAjyAUJIIuCEyC1LXSlB69EPfJp0ZDUqPHS5UcScU2qcuWe5qojxXj4ac019COA4f57UKiXMJPUbAWCEYGktzIKo0DL7z6j/bJ4ffG1b6sPIQcTPyQcY1Dk+mDqXT6sjw6qlG6NfI4L6YIAD2Maqh4DrIoYZ6SDfSmfCXlH9hblKTjlBrVB4om0wdbq8HNJIxxC+utfOJQFYJPnmyeTsZ/m3P96BgH/0p6hRlG8oovOiCsTgd+W5PqYxAekwEhbDsHxXizLlgy7+t48vLzQoRqb+T4MGILFENIjsZtVE2uj9mnw0/JVT9ULCudrX6oV7aD8iKr45M928G7BaHs8Iv8Crzajx1pG/XIR4pxhndYSfRR4QSmE35MnJCCd4G6Fzmdm0eqmSarymKyqqTJKn0CkEF6V2pl98P8SfAjOT7oicWDL5M2Kuoq04feQJbYGN28EF7qGeXM8c0LJCy6eUFZR2dV4ddtNj7PKCHOXZjqSNqodLmAN7Jm6qN34D6TEh1a5dej0u2WOdzdQbsvr8bhHV03vu3Ji/TzFt5DIZYXiZs5bmuOPlbsw31OHtytYsP1qMjDtDx8a963AUcHfIBq98sS0Sy7U9gGkmTi0HOESU1tnj4Ux4LrkabF6SuoNoeLUeOQ6WBd3NCFpDuh2Aycv4G8itgygtth8N1A8RyAFEOlllzgn3SdJrzehHl0IfhsAkCajjPloKJT8X7KkuVZa+/HjqQ8VHuDDgjuk5qrj9Ghe6vrmGoU68dxfgDl6KTRKcJNAmhmlcavo+U3EcuBxPIHnY2GGscifTCCJgOk9WJbHevzWLLKkyvJDYI8q5AIknsU04J2PyAz2/Zf1ZbcRCyJlryk5fA7DJLVB9FifZS7Mj8Z5XinsZJVbtHViTJBQla3HnUT59bYVNnzpZlyp7I7q+czvQ6/74gOaO9fnOPw8LrcBfpoWsf3mmHY9MoHYOwpfR5BVrfW9OIR0+oFTfLV35dKiarvdiUOCNuoTvncWEofLe7cDQbdVowBPqMPOdpNGAMeK8Rnyh2HpURL+Oq932VxkOxrQjHU5fRRTXgThi3V56HBZ33vWTUtfkd7ZfdqcUp0VBYzoMPPUDwLT6UqzLnwKWeAFpDV5W8kFxSykndA7oSL6Gv1jXgXJ2+jltur6aMu967nFW8kz+dOeyakr41XC9GZCwefixX353xfvfdLcEB8upxRjNz0Gb+ADYTxC9hAkN1pnwh5ktXpvEO1OmHdIfr6da6vFoyQT5eXuoaanz7PTlZFX2aMLtFXs5To00r0NWmj3pu56rOyb13ja0TpXYmmOvbV/y6ZEsHiAx7uhZHvA8sFoAflC7MVMvo3WM5nKdHS9HXcRrXy12eTdhD/SdTF24GLFe/9zGGYLD50GrV5Yq5Dn+cmqzKn2OFVosbVUvSVt1GD2FyHPg8jq5IXiWeE5d+gLhPscUpUf7eYvnKK4Z7b69Jn/hvUM8JS7zicFha841B8p6BqxmdEthdW9McjnP6ttTZ9tma945B2IjdVFMjO1kA1Et8BlUD4mX3hEX1tfJtPX/n9bzCpuQ59NoWsCtHH0OKPdCS6Mr+iX8M2qgOvBFqnPs9OVsUnpmktfn3F7u/Z9DVpo7bgnZ5PvYOWAygvsiqQQ00bJSlR8HqGr64eeUQxrPXro6xEVlNSHm8LFwQkh9A4I1/tvZdXiZI2amw+hT6L3xaurpWspgWb/5tzugOu2Pglo6/URi16/SfS5+nGgJfOXLX7S/LV2744g09tVEYxlCfTJ2OqimCqT0E1phTSogMys6JQ0eej4oxi6E+nz2YBBL5D0/rXJVlKVPuK11MFxbb5hA9sLQCpD1cIk8eY3xKz7b0/TCCqvnxVxxu33J7xhPosBmjtTlpCDjWTuq8O20Sfjvb39vb2j179oovZvSFOhj2pPnPJqs7WmKbpuDi3WyAUFgoFUUh+kcLoK+XVDf/bly9fPvtw1TjMO59FhWfQZyYKCr68Mgekt1bdidFt0iuubO8kN9Y77llOT35lfeQ78SmpxpSgaT2vNLkoEgZCivXyAV5m/hz6PDdZlSkUd8tw42qCT718OTJycq5/IlkVBMWyRme+65fq9XrJ97zuhZXbe+L/OLI6QyHTMC8Oht1u97Z1EVumNDw/pT4SgLhC6kMVyrR61cwTs9I6JC/6ySiEf+aOlCjp1rPrk71h9KnJ6mJyuGn6PD0XSz95ZRnT2Diq8azsOS/f8aeS1b9iB/0HUBagtTvFZ6EI+ZHVRRTw8YK+QFjPb81JH135W598Tvo8K9VYZ6HrTyCrf4Wzf142/wfkU3IuRsLM0X91Se4z1ZsnHTIKqWmF1DRAm6KP+n/ymWbmEZxHuQAAAABJRU5ErkJggg==;" vertex="1" parent="ZGFLP-5x8rP5CcCoOaNy-1">
          <mxGeometry x="-635.6666666666666" y="50" width="109.48041666666666" height="66.52083333333333" as="geometry" />
        </mxCell>
        <mxCell id="BGO8GokkITSjxSBt_-nP-25" value="" style="rounded=1;whiteSpace=wrap;html=1;" vertex="1" parent="ZGFLP-5x8rP5CcCoOaNy-1">
          <mxGeometry x="130.82" y="50" width="68.66666666666666" height="80" as="geometry" />
        </mxCell>
        <mxCell id="BGO8GokkITSjxSBt_-nP-26" value="Registrarte" style="text;html=1;strokeColor=none;fillColor=none;align=center;verticalAlign=middle;whiteSpace=wrap;rounded=0;" vertex="1" parent="ZGFLP-5x8rP5CcCoOaNy-1">
          <mxGeometry x="147.98666666666662" y="70" width="34.33333333333333" height="20" as="geometry" />
        </mxCell>
        <mxCell id="BGO8GokkITSjxSBt_-nP-27" value="Login" style="text;html=1;strokeColor=none;fillColor=none;align=center;verticalAlign=middle;whiteSpace=wrap;rounded=0;" vertex="1" parent="ZGFLP-5x8rP5CcCoOaNy-1">
          <mxGeometry x="147.98666666666662" y="100" width="34.33333333333333" height="20" as="geometry" />
        </mxCell>
        <mxCell id="BGO8GokkITSjxSBt_-nP-28" value="" style="endArrow=none;html=1;" edge="1" parent="ZGFLP-5x8rP5CcCoOaNy-1">
          <mxGeometry width="50" height="50" relative="1" as="geometry">
            <mxPoint x="130" y="99.71" as="sourcePoint" />
            <mxPoint x="198.66666666666663" y="99.71" as="targetPoint" />
          </mxGeometry>
        </mxCell>
        <mxCell id="BGO8GokkITSjxSBt_-nP-29" value="" style="shape=image;verticalLabelPosition=bottom;labelBackgroundColor=#ffffff;verticalAlign=top;aspect=fixed;imageAspect=0;image=data:image/png,iVBORw0KGgoAAAANSUhEUgAAAOEAAADhCAMAAAAJbSJIAAAAhFBMVEX///8AAAATExNcXFzn5+fAwMBwcHBHR0fd3d3V1dX8/Pzz8/M6OjpDQ0Otra2FhYXv7+8uLi7Kysq3t7d7e3vj4+OdnZ2ysrKLi4tiYmLHx8fX19ccHBybm5uqqqokJCRRUVE0NDSKiopsbGwoKCiAgIAXFxcNDQ0eHh5WVlaTk5NgYGDDl8T0AAAJb0lEQVR4nO2daVvqPBCGBVlbFxYRQUFwQ/H//7/z8h6P5knTZibNJK1X7o9K2jxtJ8tkMjk7SyQSiUQikUgkEglP5P0rK/NR7Fq6Mxl0SLzNY9fUkcU7TeB/vMauqxt7ssBO5zZ2ZV24YgjsHPLY1XVgx1HYWcaurgMHlsJB7Oo6wFPYiV1dBy55ClvYK97yFG5j15dPzlP4Ebu+DsxYCrtZ7Po6MBpyJI5jV9eJ+9vrCp4eVIWb2JWV4FlVeB67NhLMVYWHSezqCLD4BYZoAcY9x9i1keBGVbiLXRsJwBA7bZxB2cBxTz92dSS4UBXexa6NBE+qwsfYtZFgDZ/pb+wRJ7/fEMGbcxO7NhLcqQr3sWsjAU4iF7GrI0AOA7e2uvcrgVlyG32KVsBhNW2jK8PG+Ncb4hkobKFP0c4nSOy2gLfhhjX62nbaCOdjW9gv10QYK54Zfam4UfToEomr/U3jia6QtVjcHKZ0hS01RM6K54X9ag2E45FopyGuGArn9ss1EE6P2ItdWSdYy/KPsWvrAG9F9zp2dR145gg860PZUY/OSC24XxBKTKDlnjHuhcbEmwVlUJbjU4RlgQtSEYiC4cxHcSbLjI6Bu14zCqJCkmlcutZzA98L0xsBPsUHRsGQCsG1yzND3afIWGULqHDyphbkegVxlY1ROqDCmp7dc7U0w6cYUCFY0ju93BdHtfgLvVxAhTVXWFxb4nAKnQ3pX3kIj6IHDIdTiKMSh5CDD7U8vSkOpxBWq10WydC5T35E4RS+qMUYPppvHJ37wRSiGa6pxVTgCmRnZDCFHiJ/VuoVyIYYTKGH6C107lNLBVMIZugW+IOzL2qcYiiFI6faaYArg2qIoRQu1UJvjnE/8KUPiYVCzYAhmnlHLKQDj6mz7pOAJm5KKbHeq0W2tNv0py4fmE57fIrOwcytce67CkRDbDDuu3v69os3AvdoirYYYo2ImH3supM4uAvEKVhjqROZ1g5DvKqhMLNfvgEwYjCKtKFHpA1+yzjabxCdegGivF2ncagXbY/OkOHADoz53wgFBgPwW64IBTB1Qs34ULZzHxon2uwJgpIpzQbYDiNOyAgs0XUJBULMgOEd1s3Ccg8fxL29QACFfje95ODKIAxxAyjEcUjtQHQwRELUUQCFEChS1ww1n+Kj3fEaQCF8VvV38nINUV4hmuGMcodq4Hr2JATyCr1v5IUu3G6I8gohcNJHVgT0KVqrLK+wq/7cx4Z6pnNfXKEXdz7CywYirhC+qXcv++lfoc62X4srhEU/P1mCsO2y1VlaYQbufD+7stAQbcvJ0goFzFCrgW0tUlohpvOiCbDCMkRphWCGnOj8KjAJgWWKKqwQvX91/IgqLEMUnuOjGXrb4Ao+xcdhJfBCDtW//QI2j19W/xZa0jrufATCHBuEv4wPa/vNouAxAWlsKSXUcucjzKyZgbj0mCtgY79dBHwmXhnbbxcBn8lzmrnK5tEMtbFSQ6ANJ6gw09cGwSUsuJyR/YbB8ZvDKn+x3zE0nvPKNM8Q/ZqhloTgYTwqBTqWffnvfujBwL6/KP8l7OTynZgTnfsVkzjB+FLv7nyE+vwEZ8CYzMJ7eieqL11QIawvfHIFWEHnfrkjVlAh1MB/omqqEcgpxD5ZIOs/pOUpN0Q5hdy1WjZEn6KcQu56Oxuic19MITtmgg0xxkNMITvuhQ+4NUuTEIgpBD8DJ0MAHVqQh5hCyJPHTS9Ag+bcl1KIMYQyBxlNwDddZohSCtFV5NWB8QMYYpmjS0ohxCP6c+dX3KSs8lIKSY+3LhgwXPKhCClEb59Y7l+4S8nanZBCjEcUS6RO+VKEZsCw/EXd7ckHfIqP4/txkXv4lPfG32iMwIsxN5YYwbqh3OGMOHCKh1N6ARqxpX0h1BueeLbfPQByZtgU577kuSLNSGzq3Y+okE/t95dHNE18EwzxUlKg5lOMg+w5vhN7BcQR7CtOxN+iLzO9V9hHFvgifo5YFncl8SPEQWnj4+o8Dqsnya4wkUgkopGNt4OL016rx89N31dLnvU3q1MAz2E/uJ1FPY4pm2lHDOy29b1g+fIDL/rcjyZyacqacV1PY37sFq853UbROC7LClJn7F92OsqLoPOpjIr4/b3ra8x35RcNfRJj9llel07nzW3D1aLSg7ALemJoz5a3xmVhwbbn4SHgEXC5/fgLfvAnIVGM8NxXgbI5gRvRQ8mctg91xjRpnv/IM5uMlK9JIorGAPHguR3rosR5dZDT3snOKM7mQHLatBCtDf0sKLrVZOSTe3Ziur4pOvafl4vepDd7fdP/QQ+QLA5lbtanc2Tmxccp78fQm5nVdxOeFdZtqKPJQjNz911yomuUb2y0G0IEXe8B/0nt97WuEIdEuolKd4raeWWahgnaEzXxCH4XB6010fTLOvX1dqbQeGMcLzUJNU6YCoNatFIf+VqqgJdkOIDoWF1ZIzicMSSFQzOtK6EabEkNdoaRPbTWFL98w3uvdXIVE7hX19ThwQojbVIHbbDxI4QYc9nD0OFxG1OnwC9oTTvYtrEhgaZI9pRpGJMaA3fgLe9IF4UQdeO0C6zb/04LFQhFNj5uGLbSdltDMJnRyqA19buzUgdMxjjQh/6CFvkC3hlj82u/rTfgYRpXY8EXQeu7YOZkjG+GnNSyXT7U33gCEZgMLQEu1N/Y/IKP2FfKFjP2TQ/gL6NFL0Hz9W4wXeGNh0AO0eyG542DSFrXZS2DvllhZw20e4aXiE4q2oxcy2dQ+D++wvrpPKvBOWAhIRyeQUvdjIyubr0By/CpcY4MdUGb4g9Ropb+m9qua74tHEnowR/ik/w93u9F6b8yPeqNOkbWnVvnynNbaPP/qfgyVOHI7tX47z17hfzt9JR/BQ/s3V8LzkYFR430BPjMFBT1/nzzOhgW/szYQWeIW70YvN4MipkcjPMZz5BdmxyfETlcTnZi8cW5vR7/w3EZURPgSHcVf8kN69AGeBNV4hEFgRbYSNsuuOHmpCD5YGvdhfa0CD91KsEUA7Sj/7A+cJctEZUL5yfkNgMZsLxFt7CC6+qLBmlGf7gvrMMouH5NlXHywUNLJ6WdRte9PbgvXWUbhlvD/wHPLfzHoZ4b5fbBdNGprI+0nH7hPV5s6o6q8m0hDmIXS9+J3laZTwyPYy8D/9FGmTCubgOG0ZSQz+bLq3nfr6H01vPlcj4LFV6SSCQSiUQikUgkEj/8AWJ4m338uIc8AAAAAElFTkSuQmCC;" vertex="1" parent="ZGFLP-5x8rP5CcCoOaNy-1">
          <mxGeometry x="240.00333333333327" y="61.46" width="57.079166666666666" height="57.079166666666666" as="geometry" />
        </mxCell>
        <mxCell id="BGO8GokkITSjxSBt_-nP-30" value="" style="shape=image;verticalLabelPosition=bottom;labelBackgroundColor=#ffffff;verticalAlign=top;aspect=fixed;imageAspect=0;image=data:image/png,iVBORw0KGgoAAAANSUhEUgAAAPEAAADRCAMAAAAquaQNAAAAY1BMVEV0dHT8/Pz+/v7////t7e3s7Oz19fXz8/P5+fn09PTw8PBsbGxwcHBubm5qamp5eXnc3Nzk5OSNjY3Hx8eUlJSBgYGmpqaHh4fV1dWdnZ28vLzGxsa2traZmZmqqqrf399hYWHwxnLYAAAQoUlEQVR4nO1d6dakKhJUcEW09n2b93/KAdwQQSXBr2rOdP64J/qe7tIQyAySJQOMEMJJxE2FOUdEwFQLCYepFuYqFD+bqDDmMOMQKTBWIA4FDBWYqZD/owHkPxvjDkaB+N9J3DPuYR4vYawlH6cdt7hnHPc0ZShzQ0MYTsCQw0yFyAgbaisxjv4x/hZjPGaMuSUxNwFzjiIBUwUSFRIFpiqMOMx7mAgYKzBTINLCUMBQgZkKkRb2LKMgEZZxc4GZAj397AowUL/97Fee/eD6r6z94PK31/Yw926Vq90q6MfXOCjMDSr9SJodVL2/iLWuI3JxHUTrOiSW/9eMx45TgRaMTXJAohnNMZYiRQ9JPGAcjyTAMsZRIhpDwEyB4QSsaU5ANIBsHJOUmRhOGSGkhw1N1Ms8GdZtjBRYNyzq27iHeQ8FNSyxHEWnRPEdIzei+o6RG4m0boQx3V2v2/v9dnsdNydhx9vxeH4erjv+tzltaHSa8JAjZ7m6yiQkY0+93l+XoGBWlpRZUBuHtCyLqqKn1/txjQl/37UVyDqMG5im0fZx3gdVUbYsTcaoF/R0e2xZ00X/m4yZ7Z7HzTzXAe+iovvnNUpJtJquVsexF5UZkSw7nIPKim3HuiyC432LLMaxhcqMg5x7z1p/pQrMgDBE8X1PCwhbifXluWPqsNaI/GfzHiYqzOegRK1VmTx2NN+TQaSFoQpDBWa8dUl22Nt1ZYOVxem94+3cdisxZBSYqrAJDzpYh2a/movxPbwqp9Ydkq72B9YUP6syuas6+aMrjBbBk2RkHcZLVWYPB5kmxvdMS690ayur44H57l5lxhJMR3CWMeGWoJCZgFm4BGYqRHh3rPw2b2+0uDzqd0Qpf1iqhbmARIGJAkP76KRXmdf9anyFFadDRCxVpiE6eVAgeM327TlvHin5icxeiuM/4Cs4nw5p+H3GJH57ds9TnPcxn2l8M5dJ0vsq/tlktHhmriqTyy9S6y8+XSeZDcSfS/GHfLmVwaHWnmHeac9QkJBgYoaZRTzGoQJJ9ocduremaxvicRT38TjWhWYHzZVeN3/ZoXujwYOr7b9WmSS6VV/hy606sonp+ipz0KvJ9vSdBq6NBtcFvVpLvlGZcyJyANkf0P2vPZZq1Tvh2jIXb16rzB4mKpRYglRmFB+/TZg57Uv0ZyqTbDdfcNEjo+UV4z/J7KWH7zdwbdUTj+TXCiozeX7PR6tWHOttHuuqzNuvtDC38vIhtuNY66uNaYCUXHwEJdqYh1/a7PDAVxMFjn318njMZcfn5PaWfM2FfbL9fn97v9l/Wcd0zXsWW2yT9bFTmeQTOLwdY7t5PQ+fKKw3fog+x5ekzhen5DajvJbKxB8HugV9PXZ8Vsc/XWf8V7mbuL43cNLVI3NVmRhpIMYxmG8R3K6ZmMvrjf04+sBJV890Zu4Ux32vXrz0EkIJ0+L0YMLfxLZrbZwdLkDO1T2bXnqRV2GWRicC7dLF/hDO0e1a+nqBBfvq4V1lki2Mb3k6zDavZIwzbE5WXbFflZnAWpjSZ4YX0605h09QnC62yKvKJKA4XJ52Fu3bGMI7kMqpPmQZ42Xj+AL67O/QsoGbZs7OICW7NQvOgcrkvKd3N5H8Bfno9GDfwG0zPwBfmJ54OO13NyGVWrO7aUqBNDB9Az453WxBDdw08xXyyD3GXjRX+gBEDLqJHQgzyh9A1qF4e2FMtoAu7UqYUd7ZPzWoDksY89E8udt4A3i0M2HesQFfutoJdzvYMYhwv9uYYbGjPG8EmgIFCo8QJ7JzJgwcyyfSk0i0cC46pU/AY4urB8KMMuDZ9DYTneYUCLkCvFbx9EKYBSlA/6ru2ElzQQYx3RtnhbaUif3TgyrGGKyro/QM8dORJ8KwoUwvM4ynxjGB+I7i7qdP15RvgKj8nN5f3UQqEZ3qeCxCUh2PIX36EnprYtavI/s3YI4zaaJTR02CUwoEvwF92pOfbg0/Ae9wGiUwl2kukJ9m0cEn4RAl9u/ABxaM8QnwsHLnsU9zAzVyyWf11iqTQB5Fj36bmDVyDnEmN0lldtSacdwc6RtZFoGSAH5HMTdQI1dXE6/EHJ3OEMYX33xZI8eQhMiJRJYqE8eQNGrpMxa3hveAb1/ciaXmgkha7jE8+y3BGLZCH0d2unoLaWK6X6GJQ5SCPv6TTLZx1DOuISh5WT7WYBzC+luxE3zqTQQSyyDWRSd8AC2GlPEKnZoxvkNSqeUz1UcnrQLBFwjh4LJKEzNvDVqYobvlmgs2igN6XolxCFF/vJGXM36BFjXLwzqMQXNGbvFilbmDLWkW6wxj6EDm7lqrMkWqL+fWwgwkt4Jgk63EGG1hO6o2IU/LytSYBU0QFlKsSW4BmzhYJRoLxilsS1V17VVmy1KnQECTpmA9x8UYZ6AXCugLL1GZsHlxwIfNWoxDYLTkec0FjAl0o2mxlqtmjIGepXwaGCPWsPzsoYA5SNNxxr7THxLjN/CdNuKEMIkklmOVmUF3khWf9Rg/gLtBi0c2qzLDB3Rv7ZptDAvI3Hdls5oLQebf9a+vFY6By4zCSjLHOALlPlZnDJQgwp2qjJVxTKD950cZ85CsVZndPkxQUqm28hcZB5R0W0xrlkGX6okjocTgG53L5BcZFwd+QxI2KhBgFk0Y/UnG9JxOai7oTPR3GQcboq4fy4wxhmzsaRn/5DgOiq3Sq8UvJuKsCJukfBzOMq2U1xOM4RGEaeuEU+tYDqMTdKIobE2V6cBYxCejykyhswjB+AdVpqCMsVlzEYdh/IuzRWHVzsyYODiIlZbZGsZOfe+AjSrTQWIyo+/VGCNgWqZ9r8E4Fr/Y+GrwxLv+Ze/7AzrCmdNhyVM68NXuS6j9L6/ludDO6TxsuYtMKhOYMmyNrrF6zM1F+wZ8q0ZkUpmR21nq1QKy22hjLpVoVSabO4EzDe0vrzSQETB52xh9E7lXSzNH5OSq/e9e6wjnTq/FXGomz48lv00cJk7CTuswdplHCNuYVGa6d/vhtRYXQTu6ZKOZXnPh1EVjCsb+968Jxm7DmCc0iZ7xzvUmg3XW2hBxfa/mSONYZUIONg1t43NvdWsYvGbQWnEg0jiWVmRc0gG1VWtEZJdMVG2l2H3crjv1sZm4aTnx0yssqCKH9GpjbC6h1VwEupwl2cl/t3aUmILxbT3GhcuBVANjt+mNYPzCY5UJ3UKu/rZ3b41iD3fhnOR9IP0umMzZQ3DzncJ1lh/cLqG010faz+WDceF7M6pT+qO1C9GqTC+Mqee9mc6aun4rg8r00qs9+y7ghknFqjUZ+50yOuZ7WisMuUz3MMDN64knp0R1b5XkraTMXuqlA3ltZC+hiVklolOmKpDUz/f0uRoDOjmpsaqJxysx9tfI7vPExlZmzM9k+GHsaRSzNxqozO60lzfGvhYnfI1ioTKxUm+RW+glOnHzdVeEtxe6SKcYZZXplgeXzcukEXQFit5MKtMxXS2Zj7sEUOaaaOyMvlK95vLHOKDuEQpD7qkwvM3ZwNhxEWbwjCP0bq6OsMcblOlzxLjehOyRsfOs0eFyzrGVjyZ7W6vM3m8TnzfLu92DgkLQUVGDlXfpXLm8mgrePa8zunfx177kZW0sWhrWj705R/EYh0yue1J+YOXHxNjPdLE1eG4A7/xWbqA7vcqMvcnYxjbArakoc7wle/QiZKAyeX6vKcrtI20oGT3Crq3yGInb95BYyiozOnguAwIbyl6jJLfy2d+zN7yjPPKSN5QNMqVAiVcHGohNe4ZdipHPqN+YfVT23afFxkxDLjMmrtsiRmZ/Xwbw0oDJl8iG9Rb5H5rLYb3lBHqz3pDrO2AE/EKHwb23g3t9fPuMwHrbAAJdoDRp9EaMd5TDLvOZNkvn5VltcSvbK350Z2Gw76dZr6961n3ciu0UY2+Zpd7slt4glxnOGCVTt0d62CagmtVGPuR1xiqMvtJxvcWu6ELy8e+67BgDb4WYsPKOlKreUjxm0HunsovIKzCuYoza+zIRGlXC8bTaJpndhifoPRgTtuG3VhtP/0TgiyKMZnnSzeE0sN5YrDCeMRe92vNcnF8Nb0M4xL7LGoqMz1S9xcTvN67OllNkhPaev3nWUjPVW/TZrWnxtM4JoMwrZS4x4+lKOKDbKfUPK/YfQJ4ehT4r7ooj5tO33GSeZoyM7xWDUnvIZ1XlQlwnOM3Yx+oTLYPzDsaXGw4PnjjTc18RyHRHeeLurctif0ic1p0QRuB6XgMrtgvqLbrOJorgGdsUsTJxxttb4NzQm3RJvUXYRYq18Zpsbs3bG8bk4djQ5ZMsqeqNwXs/aXW5Zp74cmMNvXMpSxiUn2jJ7ZHQlfPaO3vebIxweL1R6M1N+3SScVdrAHbal/FFqxz+wTh+bkAjmp+BGfdqPnEk9cyR34BD+N0+kCIOJ2D0XUY6OZwAnXuTyfUWibkSTvSxbeTidICVZFvOGV/3tiVl+QUCC+stpnbTiTK4+/RXBmNe7GXJOcRLb+y2qiRBxfHetflyQ3h3s+jb5bPbcDt/R3m+OBVCq1v8N3ytOVNxxd7CSjiLD/QV++3f8bXjXL4FH5PKFG9dq0wBlyUGys1hlYA0w3m7X9IeNOupIQkaqnpHC1agaPn+A4elMTbNmC8nW9wt68LM32lUHAFFUX1xzp5zbnsTWjKeq7JIg8N6imPe2HDeT/bCanCZj+6OcoS6O8qRKOWdTgqv4pZ+kS83Jv8nqgbz0mVdvUU+YFuWTGXmeZq3UozhtpR3nkycUaDB9WsdujNGw5wDLLYhL/Cd532t73y+qrdxJbfYR19u4Npw+DY4bXrktSTsq3obNoPyM+rfJlsbwld9z65LSYhNEFbVB7ULjbzK748QDvl+Rl0J3eLep2ytGGeafUbl3r0GrE/DybgEOL2E0UQbm8cxzsdrq+XLthL72oayl9oViygUfAzjmNM2VfXGqrwuzj/UoxtD+DZs5fKZiqreuN+4hSWW01W98bCe9y8SHi3O0QuJ4DWuh0Xq2WzkBwmLxTnpLenHhfFg4Y3fMfFtcnrDksMp7qljVe+uthU9rXeTr6vhLe2ahURKVe+OWnMWpqmu2Ja+HsGw8wvrXeTrbm05bHrKZ/jMVvWOCaq38Hu/9sKrtaeFyq2U+ABV9Y4igiPeyO6H1Na1+haNor410aWqN2eMeWaz9HWKei3j12gU51ylCWKM8L1ar5KRL0Ofks2YxjTtVGYHz/8RTSx+rXmADqJvQnxkkXYweA0qU/LbfUhSAxXhp0hQrVaFDK1hWH9PDWyfqYX9dVESbLtVB2u/qUJihlkfkiaj07QCGcBQhWHfg/RQ38X60RNrB1LLuB5THEYdJApMdXBGgfws4+gfY1+MZ1SmBEMVhgocOQzVd4zciKQM9PpHhUSBqQrnx/GEHvsuzBzg1BNmVab7B897KPWlZd1q1MP03WpZD1usMh0GVaQdVLECbVzHrBfRuw6J5T/GJsZaKPyiBFMV2jNWoAVjrKdprLfIrYf1DCTvYWqGqYBEgbkKxRMSLczMMNRCcR11FM5BpMCpqt5ObuTXo1Pf235NgfxTmf8YQxlbjONfVJmjIb1UZabDooT5HExUmM/B1AyzP4JtvcX6K4vOpMA2zyW+sg6SWMRjASMRhBUY1V2sg01fUmCmQKSFzUBSYKZCpIW4g9F/AXWsstamO868AAAAAElFTkSuQmCC;" vertex="1" parent="ZGFLP-5x8rP5CcCoOaNy-1">
          <mxGeometry x="29.99966666666662" y="61.75" width="65.81700000000001" height="57.079166666666666" as="geometry" />
        </mxCell>
        <mxCell id="BGO8GokkITSjxSBt_-nP-31" value="" style="rounded=1;whiteSpace=wrap;html=1;strokeWidth=2;fillWeight=4;hachureGap=8;hachureAngle=45;sketch=1;labelBackgroundColor=#ffffff;fillColor=#FF0000;" vertex="1" parent="ZGFLP-5x8rP5CcCoOaNy-1">
          <mxGeometry x="-55" y="471.57" width="179.54" height="248.43" as="geometry" />
        </mxCell>
        <mxCell id="BGO8GokkITSjxSBt_-nP-32" value="" style="rounded=1;whiteSpace=wrap;html=1;strokeWidth=2;fillWeight=4;hachureGap=8;hachureAngle=45;sketch=1;labelBackgroundColor=#ffffff;fillColor=#FF0000;" vertex="1" parent="ZGFLP-5x8rP5CcCoOaNy-1">
          <mxGeometry x="140" y="470" width="186.82" height="250" as="geometry" />
        </mxCell>
        <mxCell id="BGO8GokkITSjxSBt_-nP-33" value="" style="rounded=1;whiteSpace=wrap;html=1;strokeWidth=2;fillWeight=4;hachureGap=8;hachureAngle=45;sketch=1;labelBackgroundColor=#ffffff;fillColor=#FF0000;" vertex="1" parent="ZGFLP-5x8rP5CcCoOaNy-1">
          <mxGeometry x="-640" y="470" width="176.81666666666666" height="250" as="geometry" />
        </mxCell>
        <mxCell id="BGO8GokkITSjxSBt_-nP-34" value="" style="rounded=1;whiteSpace=wrap;html=1;strokeWidth=2;fillWeight=4;hachureGap=8;hachureAngle=45;sketch=1;labelBackgroundColor=#ffffff;fillColor=#FF0000;" vertex="1" parent="ZGFLP-5x8rP5CcCoOaNy-1">
          <mxGeometry x="-449" y="473.13" width="181.14" height="246.87" as="geometry" />
        </mxCell>
        <mxCell id="BGO8GokkITSjxSBt_-nP-35" value="" style="rounded=1;whiteSpace=wrap;html=1;strokeWidth=2;fillWeight=4;hachureGap=8;hachureAngle=45;sketch=1;labelBackgroundColor=#ffffff;fillColor=#FF0000;" vertex="1" parent="ZGFLP-5x8rP5CcCoOaNy-1">
          <mxGeometry x="-252" y="473.13" width="179.97" height="246.87" as="geometry" />
        </mxCell>
        <mxCell id="BGO8GokkITSjxSBt_-nP-36" value="" style="rounded=1;whiteSpace=wrap;html=1;strokeWidth=2;fillWeight=4;hachureGap=8;hachureAngle=45;sketch=1;labelBackgroundColor=#ffffff;arcSize=0;fontColor=#FFFF33;fillColor=#E6E6E6;" vertex="1" parent="ZGFLP-5x8rP5CcCoOaNy-1">
          <mxGeometry x="-670" y="1050" width="1030" height="290" as="geometry" />
        </mxCell>
        <mxCell id="BGO8GokkITSjxSBt_-nP-37" value="NEWSLETTER" style="text;html=1;strokeColor=none;fillColor=none;align=center;verticalAlign=middle;whiteSpace=wrap;rounded=0;fontSize=22;" vertex="1" parent="ZGFLP-5x8rP5CcCoOaNy-1">
          <mxGeometry x="-193.62500000000006" y="1080" width="34.33333333333333" height="20" as="geometry" />
        </mxCell>
        <mxCell id="BGO8GokkITSjxSBt_-nP-38" value="" style="rounded=1;whiteSpace=wrap;html=1;" vertex="1" parent="ZGFLP-5x8rP5CcCoOaNy-1">
          <mxGeometry x="-373.875" y="1129" width="394.8333333333333" height="40" as="geometry" />
        </mxCell>
        <mxCell id="BGO8GokkITSjxSBt_-nP-39" value="&lt;h1&gt;BierClub&lt;/h1&gt;&lt;p&gt;Lorem ipsum dolor sit amet, consectetur adipisicing elit, sed do eiusmod tempor incididunt ut labore et dolore magna aliqua.&lt;/p&gt;" style="text;html=1;strokeColor=none;fillColor=none;spacing=5;spacingTop=-20;whiteSpace=wrap;overflow=hidden;rounded=0;" vertex="1" parent="ZGFLP-5x8rP5CcCoOaNy-1">
          <mxGeometry x="-592.75" y="1200" width="163.08333333333331" height="120" as="geometry" />
        </mxCell>
        <mxCell id="BGO8GokkITSjxSBt_-nP-40" value="&lt;h1&gt;Contactos&lt;/h1&gt;&lt;p&gt;Lorem ipsum dolor sit amet, consectetur adipisicing elit, sed do eiusmod tempor incididunt ut labore et dolore magna aliqua.&lt;/p&gt;" style="text;html=1;strokeColor=none;fillColor=none;spacing=5;spacingTop=-20;whiteSpace=wrap;overflow=hidden;rounded=0;" vertex="1" parent="ZGFLP-5x8rP5CcCoOaNy-1">
          <mxGeometry x="102.5" y="1200" width="163.08333333333331" height="120" as="geometry" />
        </mxCell>
        <mxCell id="BGO8GokkITSjxSBt_-nP-41" value="SEGUINOS" style="text;html=1;strokeColor=none;fillColor=none;align=center;verticalAlign=middle;whiteSpace=wrap;rounded=0;fontSize=22;" vertex="1" parent="ZGFLP-5x8rP5CcCoOaNy-1">
          <mxGeometry x="-189.33333333333337" y="1220" width="34.33333333333333" height="20" as="geometry" />
        </mxCell>
        <mxCell id="BGO8GokkITSjxSBt_-nP-42" value="face" style="text;html=1;strokeColor=none;fillColor=none;align=center;verticalAlign=middle;whiteSpace=wrap;rounded=0;fontSize=22;" vertex="1" parent="ZGFLP-5x8rP5CcCoOaNy-1">
          <mxGeometry x="-236.54166666666669" y="1280" width="34.33333333333333" height="20" as="geometry" />
        </mxCell>
        <mxCell id="BGO8GokkITSjxSBt_-nP-43" value="ig" style="text;html=1;strokeColor=none;fillColor=none;align=center;verticalAlign=middle;whiteSpace=wrap;rounded=0;fontSize=22;" vertex="1" parent="ZGFLP-5x8rP5CcCoOaNy-1">
          <mxGeometry x="-193.62500000000006" y="1280" width="34.33333333333333" height="20" as="geometry" />
        </mxCell>
        <mxCell id="BGO8GokkITSjxSBt_-nP-44" value="wpp" style="text;html=1;strokeColor=none;fillColor=none;align=center;verticalAlign=middle;whiteSpace=wrap;rounded=0;fontSize=22;" vertex="1" parent="ZGFLP-5x8rP5CcCoOaNy-1">
          <mxGeometry x="-142.125" y="1280" width="34.33333333333333" height="20" as="geometry" />
        </mxCell>
        <mxCell id="BGO8GokkITSjxSBt_-nP-51" value="" style="rounded=1;whiteSpace=wrap;html=1;strokeWidth=2;fillWeight=4;hachureGap=8;hachureAngle=45;sketch=1;labelBackgroundColor=#ffffff;fillColor=#FF0000;" vertex="1" parent="ZGFLP-5x8rP5CcCoOaNy-1">
          <mxGeometry x="-57.7" y="798.5699999999999" width="179.54" height="248.43" as="geometry" />
        </mxCell>
        <mxCell id="BGO8GokkITSjxSBt_-nP-52" value="" style="rounded=1;whiteSpace=wrap;html=1;strokeWidth=2;fillWeight=4;hachureGap=8;hachureAngle=45;sketch=1;labelBackgroundColor=#ffffff;fillColor=#FF0000;" vertex="1" parent="ZGFLP-5x8rP5CcCoOaNy-1">
          <mxGeometry x="137.3" y="797" width="186.82" height="250" as="geometry" />
        </mxCell>
        <mxCell id="BGO8GokkITSjxSBt_-nP-53" value="" style="rounded=1;whiteSpace=wrap;html=1;strokeWidth=2;fillWeight=4;hachureGap=8;hachureAngle=45;sketch=1;labelBackgroundColor=#ffffff;fillColor=#FF0000;" vertex="1" parent="ZGFLP-5x8rP5CcCoOaNy-1">
          <mxGeometry x="-642.7" y="797" width="176.81666666666666" height="250" as="geometry" />
        </mxCell>
        <mxCell id="BGO8GokkITSjxSBt_-nP-54" value="" style="rounded=1;whiteSpace=wrap;html=1;strokeWidth=2;fillWeight=4;hachureGap=8;hachureAngle=45;sketch=1;labelBackgroundColor=#ffffff;fillColor=#FF0000;" vertex="1" parent="ZGFLP-5x8rP5CcCoOaNy-1">
          <mxGeometry x="-451.7" y="800.13" width="181.14" height="246.87" as="geometry" />
        </mxCell>
        <mxCell id="BGO8GokkITSjxSBt_-nP-55" value="" style="rounded=1;whiteSpace=wrap;html=1;strokeWidth=2;fillWeight=4;hachureGap=8;hachureAngle=45;sketch=1;labelBackgroundColor=#ffffff;fillColor=#FF0000;" vertex="1" parent="ZGFLP-5x8rP5CcCoOaNy-1">
          <mxGeometry x="-254.7" y="800.13" width="179.97" height="246.87" as="geometry" />
        </mxCell>
      </root>
    </mxGraphModel>
  </diagram>
</mxfile>
